<svg width="152" height="215" viewBox="0 0 152 215" fill="none" xmlns="http://www.w3.org/2000/svg">
<path d="M58.5892 0C116.09 3.5 119 56.5 115.5 111.5C115.087 118 128.089 118.5 136.089 88.5C136.089 88.5 156.373 123.13 150.089 149C145.206 169.103 139.437 185.34 121.589 199C101.64 214.268 83.1878 217.098 58.5892 212C38.6194 207.861 25.9227 201.742 13.5892 185.5C1.35797 169.392 -0.474445 155.718 0.0892185 135.5C1.01798 102.187 23.8487 89.4744 44.0902 63C50.589 54.5001 54.0004 54.5 60.0902 40.5C65.3555 28.3955 58.5892 0 58.5892 0ZM79.9349 69C79.9349 69 52.5444 100.257 39.5004 124.5C32.9286 136.714 15.9087 164.459 43.9984 179C53.3429 183.837 69.4142 185.171 79.9349 184.998C94.0225 184.767 105.111 183.396 113.668 172.203C120.328 163.493 120.814 155.805 120.067 144.866C119.376 134.76 104.772 127.999 104.772 127.999C104.715 127.955 97.958 122.735 87.9056 115.785C58.9254 95.7489 79.9349 69 79.9349 69Z" fill="#9441E0"/>
</svg>
