<svg width="465" height="451" viewBox="0 0 465 451" fill="none" xmlns="http://www.w3.org/2000/svg">
<path d="M228.009 139.176C225.726 131.377 221.355 124.895 215.603 119.238C200.682 104.564 185.804 89.8448 170.891 75.1624C170.176 74.4586 169.336 73.8463 168.465 73.3446C166.416 72.1636 164.343 72.1242 162.614 73.8901C160.925 75.616 160.799 77.7203 161.942 79.7839C162.471 80.7371 163.304 81.5438 164.086 82.3305C177.481 95.8055 190.917 109.24 204.271 122.755C206.762 125.276 209.071 128.005 211.229 130.818C213.978 134.401 213.416 137.722 209.542 140.114C193.379 150.094 176.975 149.885 160.951 140.131C143.146 129.293 133.524 112.573 129.208 92.6533C126.232 78.9246 127.141 65.3996 133.47 52.5761C138.612 42.1561 146.301 34.6729 158.245 33.1662C171.555 31.4872 181.298 37.7422 188.801 48.2149C193.573 54.8762 195.194 62.5809 196.19 70.4926C197.602 81.7121 200.336 92.5353 207.607 101.49C210.412 104.944 214.037 107.949 217.809 110.336C221.088 112.411 223.367 110.878 224.03 106.956C224.758 102.648 223.499 98.6514 221.366 95.0067C217.316 88.0889 213.351 81.0953 208.847 74.4757C196.841 56.8302 199.678 39.2959 209.081 21.9363C211.245 17.9402 214.439 14.142 218.011 11.3371C228.127 3.39411 241.989 5.63319 250.135 16.137C259.947 28.7876 264.101 43.0337 261.383 58.9629C260.293 65.3514 257.316 70.9981 253.69 76.3644C249.6 82.4176 245.598 88.5491 241.947 94.8713C240.363 97.6144 239.692 100.9 238.719 103.975C237.956 106.385 238.233 108.682 240.432 110.254C242.847 111.979 245.109 110.932 247.145 109.41C252.594 105.336 256.854 100.238 260.085 94.2441C264.603 85.8628 265.955 76.6269 267.574 67.4369C269.087 58.8451 271.648 50.5647 277.688 43.9959C294.224 26.0135 319.605 30.5016 329.566 53.0166C337.312 70.5268 337.116 88.0719 329.7 105.571C324.736 117.285 318.15 127.925 308.111 136.085C293.821 147.701 272.84 151.207 256.83 141.991C256.478 141.788 256.107 141.618 255.758 141.411C249.39 137.641 248.629 134.774 253.254 129.05C256.879 124.563 260.956 120.417 265.055 116.343C275.863 105.602 286.825 95.0169 297.635 84.2783C299.26 82.6643 300.535 80.6426 301.722 78.6599C302.858 76.7626 302.344 74.9275 300.696 73.465C298.984 71.9457 297.034 71.5083 295.14 72.9257C292.626 74.807 290.1 76.7295 287.876 78.9334C275.102 91.592 262.346 104.271 249.729 117.086C243.719 123.189 238.106 129.653 236.647 138.931C233.547 139.17 230.778 139.173 228.009 139.176Z" fill="#A3D284"/>
<path d="M165.139 267.099C155.282 266.599 147.618 271.686 140.374 277.31C135.666 280.965 131.533 285.372 127.219 289.521C125.482 291.192 124.453 293.218 126.423 295.394C128.407 297.585 130.453 296.616 132.36 295.167C137.452 291.298 142.568 287.458 147.589 283.498C152.082 279.955 157.246 277.959 162.709 276.638C167.31 275.525 169.544 276.942 170.815 281.537C175.16 297.252 165.948 314.375 149.782 320.808C138.903 325.137 127.971 324.591 116.965 321.475C100.377 316.78 86.4238 308.356 77.3829 293.158C72.4347 284.841 69.8398 276.133 73.5448 266.481C77.5811 255.967 87.0858 249.281 98.2712 248.812C107.369 248.432 115.656 250.813 123.793 254.632C128.983 257.067 134.433 259.114 139.967 260.576C142.47 261.237 145.63 260.515 148.191 259.589C151.92 258.241 152.386 253.671 149.123 251.305C141.87 246.047 133.663 242.778 124.933 241.057C119.688 240.024 114.309 239.43 108.965 239.189C96.9195 238.646 84.8018 239.096 72.9731 236.099C58.0207 232.311 45.3109 225.151 36.5935 211.945C23.9327 192.763 28.0072 169.562 46.795 156.318C62.7301 145.085 80.6584 141.092 99.9522 143.335C117.841 145.414 134.333 151.425 148.622 162.469C163.19 173.729 172.377 188.529 174.621 207.005C175.947 217.922 173.026 228.164 167.466 237.594C165.359 241.167 162.921 241.496 158.642 238.887C150.841 234.129 143.118 229.242 135.369 224.399C112.471 210.089 89.5827 195.763 66.6663 181.482C64.7278 180.274 62.6912 178.729 60.2133 180.255C56.254 182.694 56.2746 186.645 60.3471 189.265C66.5794 193.273 72.891 197.159 79.166 201.101C104.606 217.085 130.06 233.049 155.476 249.071C162.136 253.27 168.679 257.654 175.184 262.224C171.775 264.03 168.457 265.565 165.139 267.099Z" fill="#A3D284"/>
<path d="M292.538 259.461C300.187 254.473 307.761 249.366 315.497 244.519C344.407 226.407 373.379 208.395 402.292 190.29C404.397 188.972 406.761 187.573 406.547 184.48C406.288 180.751 402.6 178.432 399.323 180.242C394.351 182.987 389.557 186.059 384.732 189.064C358.102 205.65 331.491 222.265 304.862 238.852C299.316 242.306 297.381 241.796 294.385 235.923C285.153 217.824 286.362 200.161 296.7 182.888C308.458 163.241 326.331 152.224 347.955 146.507C356.811 144.165 365.796 142.548 374.998 142.899C388.936 143.43 402.112 146.864 413.914 154.457C437.597 169.695 440.802 198.906 421.047 218.98C410.081 230.124 396.534 236.215 381.128 237.855C372.469 238.776 363.703 238.642 354.999 239.19C342.265 239.993 329.758 241.914 318.494 248.453C316.346 249.701 314.453 251.534 312.766 253.391C310.818 255.534 311.224 257.361 313.653 258.951C317.626 261.551 321.939 261.647 326.211 260.069C331.147 258.247 336.069 256.311 340.795 254.009C351.406 248.843 362.263 246.716 373.723 250.66C386.983 255.225 394.324 270.193 389.884 283.464C384.52 299.501 373.386 310.214 358.314 317.073C348.254 321.651 337.803 324.79 326.522 323.914C308.851 322.542 295.804 312.321 292.376 296.456C291.6 292.865 291.314 288.937 291.891 285.338C292.904 279.029 297.575 276.444 303.806 277.948C311.022 279.689 316.842 283.943 322.498 288.443C325.354 290.714 328.062 293.173 330.811 295.576C332.516 297.066 334.201 297.339 335.906 295.632C337.502 294.035 338.406 292.133 336.619 290.279C327.919 281.252 318.86 272.671 306.783 268.195C306.028 267.915 305.23 267.751 304.202 267.194C300.147 264.39 296.342 261.925 292.538 259.461Z" fill="#A3D284"/>
<path d="M292.352 259.522C296.342 261.925 300.147 264.39 304.039 267.046C293.477 265.602 286.412 270.509 280.897 279.221C266.321 302.246 253.318 326.086 242.49 351.102C239.464 358.095 237.901 365.478 237.751 372.994C237.43 389.132 237.51 405.281 237.589 421.424C237.623 428.404 241.662 433.938 249.161 436.149C257.011 438.464 265.139 439.836 273.142 441.633C277.839 442.687 282.53 443.766 287.224 444.834C287.173 445.122 287.121 445.41 287.07 445.698C248.869 445.698 210.667 445.698 172.466 445.698C172.441 445.599 172.416 445.5 172.391 445.4C177.058 444.582 181.729 443.791 186.389 442.941C195.468 441.284 204.549 439.638 213.613 437.904C222.213 436.259 227.438 430.274 227.762 420.934C228.314 405.009 229.049 389.094 227.546 373.14C226.142 358.244 221.069 344.763 213.725 331.945C204.745 316.269 195.865 300.536 186.817 284.9C183.393 278.984 179.456 273.357 173.272 269.969C170.916 268.679 168.173 268.096 165.373 267.145C168.457 265.565 171.775 264.03 175.291 262.4C179.951 267.247 185.26 271.663 188.716 277.23C199.466 294.552 209.527 312.304 219.826 329.906C222.43 334.358 224.923 338.876 227.468 343.363C227.781 343.389 228.095 343.414 228.409 343.44C228.661 342.351 229.132 341.262 229.133 340.172C229.171 317.109 229.155 294.045 229.151 270.982C229.149 258.485 228.635 245.961 229.3 233.499C229.93 221.672 225.325 212.365 217.697 204.129C214.056 200.199 209.909 196.741 206.024 193.033C204.602 191.676 203.277 190.217 201.802 188.695C203.892 186.689 205.549 187.347 207.17 188.275C214.009 192.19 220.032 197.114 225.351 202.93C226.112 203.762 227.222 204.274 228.171 204.935C228.508 203.766 229.134 202.599 229.138 201.43C229.197 184.565 229.241 167.699 229.115 150.835C229.087 147.11 228.391 143.39 228.006 139.422C230.778 139.173 233.547 139.17 236.585 139.175C236.899 160.795 236.939 182.407 237.024 204.019C237.026 204.527 237.538 205.033 237.971 205.835C244.965 198.534 251.419 190.872 261.305 187.357C262.248 190.22 260.444 191.588 258.749 193.028C251.72 198.999 246.144 206.224 241.09 213.855C237.052 219.952 236.398 226.9 236.511 234.007C236.68 244.666 236.832 255.326 236.847 265.985C236.879 289.854 236.818 313.724 236.813 337.593C236.813 338.682 236.991 339.772 237.085 340.861C237.35 341.036 237.614 341.211 237.879 341.386C238.65 340.575 239.629 339.881 240.161 338.936C250.251 320.989 260.18 302.95 270.38 285.066C275.993 275.224 282.738 266.226 292.352 259.522Z" fill="#A49A73"/>
</svg>
