<svg width="465" height="451" viewBox="0 0 465 451" fill="none" xmlns="http://www.w3.org/2000/svg">
<g clip-path="url(#clip0_2_99)">
<path d="M109.796 301.502C105.854 302.955 102.302 304.362 98.6668 305.506C96.2531 306.266 93.4906 306.835 92.3322 303.653C91.2854 300.779 93.4363 299.293 95.6733 298.436C105.119 294.815 114.602 291.291 124.108 287.833C126.444 286.983 128.422 287.728 129.312 290.223C130.151 292.579 128.945 294.11 126.865 294.931C121.315 297.124 115.725 299.214 109.796 301.502Z" fill="black"/>
<path d="M322.716 287.923C334.241 290.268 344.751 294.68 355.226 299.163C357.103 299.967 357.801 301.756 357.14 303.764C356.426 305.936 354.534 306.446 352.697 305.858C342.44 302.578 332.278 298.991 322.549 294.357C319.199 292.761 319.755 290.27 322.716 287.923Z" fill="black"/>
<path d="M12.1524 9.73474H478.152V461.735H12.1524V9.73474Z" fill="#95D479"/>
<path d="M220.152 146.735H243.152L290.652 447.735L171.652 449.735L220.152 146.735Z" fill="#A4976B"/>
<path d="M178.652 266.735L162.152 273.735L176.152 283.235L226.152 357.735V328.235L178.652 266.735Z" fill="#A4976B"/>
<path d="M312.152 277.735L286.652 261.735L241.152 321.235V365.735L286.652 277.735H312.152Z" fill="#A4976B"/>
<path d="M201.152 187.735L220.152 197.235V219.735L197.152 202.735L201.152 187.735Z" fill="#A4976B"/>
<path d="M260.5 187.735L243.152 197.235V219.735L264.152 202.735L260.5 187.735Z" fill="#A4976B"/>
<path d="M-63.1468 302.122C-64.8017 297.528 -66.2087 293.29 -69.1565 289.702C-70.9798 287.483 -71.4324 284.58 -71.883 281.752C-72.3802 278.632 -72.097 274.798 -73.8248 272.572C-79.8857 264.761 -80.486 254.914 -84.576 246.438C-86.2008 243.07 -86.9171 239.56 -86.9847 235.818C-87.245 221.407 -84.1251 207.372 -82.4744 193.171C-81.3109 183.162 -79.4345 173.536 -74.4357 164.558C-71.9181 160.037 -71.765 154.622 -71.8662 149.416C-72.0709 138.884 -68.1773 130.512 -59.7735 123.888C-53.8815 119.245 -50.385 112.31 -45.7078 106.519C-38.6392 97.7672 -30.9566 89.6348 -22.4926 82.4958C-13.5086 74.9182 -6.65694 66.0475 -1.20943 55.9134C3.58341 46.9972 -4.14992 40.7912 5.1524 36.7348C-7.28492 36.7348 -1.5693 17.5425 -1.20943 16.2486C0.829445 8.91779 8.75644 10.7045 13.1524 5.51187C-10.2194 -13.007 35.3554 -10.5603 38.6524 2.84413C41.0204 -4.76528 46.6635 6.7588 53.3834 5.51187C55.2105 5.17282 56.4225 4.21893 57.4016 2.84413C59.9135 -0.6828 62.5052 -4.16833 63.7381 -8.42562C64.5319 -11.1667 65.6536 -13.7731 67.5201 -15.9713C73.516 -23.0325 77.7184 -31.2424 81.6288 -39.4826C87.2746 -51.3797 96.5847 -59.452 106.718 -67.2707C112.507 -71.738 118.61 -73.4259 125.439 -74.222C130.925 -74.8614 136.271 -76.994 139.363 -81.3275C143.805 -87.5521 150.116 -88.9302 156.624 -89.9907C166.974 -91.6774 177.46 -92.2484 187.952 -92.1462C192.971 -92.0973 197.476 -93.4053 201.642 -96.1212C209.379 -101.165 217.758 -103.462 226.852 -101.018C238.456 -97.8999 250.891 -98.9455 262.102 -94.3531C273.485 -89.6898 285 -90.4314 296.917 -90.7276C310.775 -91.0721 324.906 -91.0652 338.349 -85.9862C347.382 -82.5734 356.879 -80.6058 366.057 -77.5309C382.714 -71.9503 396.416 -61.9171 409.805 -51.0668C417.772 -44.6102 424.052 -36.6668 430.979 -29.2633C437.094 -22.7278 444.227 -17.1569 450.708 -10.9483C455.653 -6.2114 469.946 -0.631081 473.152 5.51187C478.519 15.7949 488.243 -5.31641 496.152 2.73481C511.194 -15.4898 500.471 42.6096 510.233 44.8357C513.528 45.587 516.124 47.9515 518.219 50.6104C522.891 56.5408 528.273 60.9613 535.415 64.3453C547.389 70.019 554.815 80.7076 560.013 92.8494C563.055 99.9543 564.219 107.564 566.329 114.918C569.583 126.264 574.378 137.059 576.848 148.743C581.134 169.019 582.198 189.253 580.12 209.822C578.749 223.388 578.682 237.096 577.064 250.625C574.968 268.146 571.955 285.547 566.238 302.367C562.97 311.982 560.164 321.748 556.975 331.397C552.611 344.603 546.678 356.994 540.064 369.139C539.197 370.731 538.523 372.483 538.081 374.241C534.042 390.309 525.578 404.333 517.518 418.508C510.602 430.67 498.899 436.75 486.346 441.179C479.751 443.505 492.813 462.781 486.346 465.457C478.923 468.529 471.076 470.115 463.26 471.832C456.005 473.425 429.493 458.841 425.038 465.457C422.114 469.801 416.979 471.208 412.986 474.144C408.005 477.806 404.031 482.102 402.511 488.277C402.431 488.599 402.365 488.965 402.168 489.211C395.679 497.316 397.158 507.467 395.162 516.712C393.594 523.977 390.692 530.368 384.405 534.647C374.903 541.115 364.578 544.193 352.833 543.315C342.396 542.535 331.913 541.21 321.421 542C314.407 542.528 307.575 544.092 302.221 549.261C300.46 550.961 298.248 551.679 295.94 552.117C284.303 554.326 273.934 559.621 263.776 565.382C258.213 568.537 252.395 570.932 246.109 572.099C235.614 574.049 225.991 572.299 218.741 563.961C196.796 538.721 167.905 534.382 136.901 536.452C128.309 537.026 119.89 537.12 111.874 533.558C104.947 530.48 99.8674 526.207 99.9953 517.512C100.113 509.503 93.3338 505.66 88.2599 501.019C86.2043 499.138 83.5674 497.883 81.1633 496.395C69.4524 489.146 6.59226 511.634 -1.20943 501.019C-6.76772 493.456 -9.03494 492.803 -17.3476 487.235C-19.8193 485.579 -68.1002 517.288 -21.6968 479.544C-22.8855 473.709 -26.8051 460.2 -31.5297 456.835C-44.1085 447.876 3.23359 400.943 -8.78532 391.411C-9.95586 390.482 -11.0773 389.469 -12.3373 388.68C-24.296 381.191 -33.5319 371.731 -36.1809 357.135C-36.912 353.107 -39.817 349.958 -42.4981 347.075C-50.3519 338.628 -53.7994 327.971 -57.8574 317.619C-59.8004 312.663 -61.3015 307.533 -63.1468 302.122ZM136.093 61.2857C134.802 64.5268 133.244 67.689 132.263 71.0213C124.309 98.0425 138.446 133.767 162.873 147.986C177.641 156.582 192.907 157.373 208.079 149.087C214.802 145.415 215.113 142.146 210.138 136.43C200.388 125.229 189.345 115.288 179.009 104.656C174.248 99.7592 169.308 95.0353 164.591 90.0977C162.552 87.9633 161.945 85.2772 164.214 82.9322C166.555 80.5137 169.074 81.5602 171.384 83.2711C171.916 83.6651 172.375 84.1611 172.849 84.6285C187.799 99.3602 202.927 113.917 217.621 128.9C225.302 136.732 229.669 146.228 229.492 157.648C229.239 173.976 229.476 190.312 229.439 206.644C229.435 208.218 230.053 209.953 228.8 211.429C226.751 211.444 226.043 209.671 224.981 208.541C220.152 203.403 214.747 199.009 208.709 195.379C206.873 194.275 205.051 193.178 202.854 194.806C203.891 197.822 206.352 199.129 208.346 200.778C213.903 205.375 218.886 210.5 223.004 216.413C226.56 221.52 229.419 226.909 229.418 233.424C229.407 269.922 229.457 306.42 229.433 342.917C229.432 344.235 230.197 345.97 227.869 347C224.44 340.948 221.028 334.893 217.582 328.857C210.231 315.981 203.259 302.866 195.382 290.319C188.13 278.769 180.871 267.075 167.051 261.541C163.511 260.123 160.534 256.487 157.014 254.271C127.126 235.455 97.2031 216.695 67.3317 197.853C64.1185 195.826 59.0039 193.972 62.142 188.94C65.2436 183.968 69.2488 187.58 72.4882 189.595C101.342 207.542 130.143 225.574 158.953 243.591C165.28 247.548 167.156 247.19 170.562 240.406C177.276 227.036 178.07 213.077 172.654 199.244C164.283 177.861 147.95 164.527 126.877 156.71C103.161 147.912 79.4208 147.537 56.8406 159.802C31.5983 173.512 25.5576 202.33 46.37 224.977C54.2134 233.512 64.454 238.456 75.6033 241.474C87.6539 244.736 99.9962 244.223 112.307 244.629C125.083 245.051 137.331 248.199 148.466 254.724C150.936 256.171 154.091 258.114 153.06 261.667C152.112 264.933 148.659 265.484 145.715 265.972C144.128 266.235 142.394 265.968 140.78 265.657C135.989 264.732 131.642 262.6 127.308 260.454C121.918 257.785 116.407 255.397 110.392 254.586C98.4488 252.976 87.6906 254.924 80.2746 265.591C73.1185 275.885 74.4571 286.434 80.3139 296.637C88.6257 311.117 101.633 319.745 117.264 324.599C129.48 328.392 141.707 329.362 153.8 323.699C167.49 317.287 175.225 303.223 172.857 288.59C171.708 281.489 169.04 279.812 162.189 281.934C157.872 283.271 153.7 284.959 150.068 287.712C145.025 291.534 140.054 295.451 135.025 299.291C133.12 300.746 130.991 302.245 128.855 299.928C126.816 297.717 128.046 295.553 129.74 293.745C136.959 286.039 144.821 279.136 154.45 274.531C164.109 269.912 173.44 271.723 180.74 279.549C183.944 282.984 186.551 286.854 188.869 290.907C197.056 305.226 205.055 319.653 213.366 333.898C219.799 344.925 225.102 356.369 226.999 369.071C229.671 386.959 228.72 405.006 228.047 422.943C227.741 431.109 222.989 437.694 213.798 439.352C207.255 440.531 200.75 441.925 194.207 443.103C187.193 444.366 180.154 445.488 173.126 446.671C173.165 446.824 173.204 446.976 173.243 447.128C211.296 447.128 249.349 447.128 287.402 447.128C284.538 445.551 281.563 444.779 278.561 444.131C269.3 442.129 259.808 441.231 250.734 438.33C242.871 435.816 237.634 431.039 237.496 422.257C237.307 410.266 237.072 398.268 237.296 386.281C237.502 375.277 238.097 364.126 242.556 353.913C253.435 328.996 266.314 305.083 281.143 282.3C288.424 271.114 298.824 269.105 310.697 275.372C318.445 279.462 325.043 285.069 331.18 291.218C333.492 293.536 337.705 296.101 334.159 299.809C330.736 303.388 328.287 299.087 325.923 297.163C318.94 291.48 312.189 285.48 303.29 282.837C296.241 280.743 290.851 284.477 290.468 291.733C289.672 306.81 298.882 320.348 313.115 325.226C323.437 328.763 333.847 328.512 344.063 325.382C363.741 319.354 379.679 308.589 386.701 288.14C391.512 274.128 382.638 258.556 368.188 255.075C358.063 252.636 348.353 254.395 339.144 259.107C333.797 261.842 328.407 264.415 322.475 265.715C319.411 266.385 316.504 266.203 313.674 264.998C309.523 263.231 308.96 260.561 312.187 257.364C316.058 253.529 320.911 251.331 325.997 249.571C338.934 245.095 352.282 244.417 365.861 244.358C383.194 244.283 399.391 240.165 413.233 228.711C437.972 208.24 434.606 174.025 406.072 159.329C389.346 150.715 371.548 148.552 353.212 152.275C327.44 157.507 305.921 169.361 293.321 193.629C284.911 209.826 285.101 226.281 293.765 242.424C296.346 247.233 298.437 247.58 303.054 244.701C332.598 226.278 362.125 207.828 391.682 189.424C395.019 187.346 399.078 184.065 402.115 188.722C405.15 193.375 400.653 195.793 397.259 197.913C367.309 216.627 337.321 235.279 307.393 254.027C300.938 258.07 294.313 261.973 288.419 266.748C281.139 272.646 275.464 280.175 270.625 288.205C260.051 305.752 250.231 323.729 240.53 341.77C239.864 343.007 239.635 344.711 237.43 344.793C236.513 343.143 236.819 341.297 236.818 339.542C236.785 304.878 236.871 270.213 236.692 235.549C236.655 228.313 238.984 222.241 243.23 216.626C247.857 210.507 252.466 204.403 258.416 199.437C259.803 198.279 261.814 197.155 261.03 193.864C251.327 197.614 244.593 204.763 238.072 212.337C236.229 209.983 236.753 207.914 236.75 206.018C236.719 187.523 236.816 169.027 236.775 150.532C236.758 142.796 239.608 136.325 244.645 130.594C257.311 116.183 271.64 103.415 284.969 89.6607C287.51 87.0382 290.352 84.6798 293.223 82.4132C295.261 80.8046 297.603 80.7422 299.599 82.6251C301.474 84.3939 301.199 86.4825 300.078 88.5715C298.631 91.2694 296.353 93.2461 294.211 95.3415C284.928 104.426 275.603 113.467 266.377 122.609C261.295 127.644 255.953 132.464 251.875 138.413C249.134 142.412 249.593 145.118 253.449 147.707C263.075 154.169 273.786 156.134 284.962 153.905C303.811 150.146 315.758 137.508 324.355 121.288C334.39 102.355 336.668 82.7567 327.726 62.708C319.788 44.9115 302.034 37.927 286.198 46.2814C276.402 51.4488 271.171 60.2808 268.369 70.531C266.536 77.2353 266.043 84.304 264.236 91.0175C261.364 101.689 256.064 111.028 246.981 117.781C245.033 119.229 242.67 120.088 240.461 118.617C238.242 117.139 238.335 114.655 238.713 112.257C239.348 108.236 240.95 104.612 243.14 101.213C246.75 95.6108 250.097 89.8238 253.969 84.4111C267.905 64.9306 261.211 40.2335 249.881 26.3279C239.325 13.3719 222.174 14.1761 212.414 27.7638C209.38 31.9879 206.978 36.6145 205.3 41.4759C200.921 54.1557 199.78 66.8699 206.9 79.0724C210.591 85.3999 214.679 91.495 218.451 97.7773C221.441 102.757 224.776 107.632 224.506 113.883C224.273 119.265 221.834 120.766 217.062 118.193C210.915 114.879 207.348 109.2 204.013 103.404C198.372 93.5996 197.828 82.4369 195.821 71.6747C193.303 58.1684 181.385 45.3643 169.324 43.3054C155.533 40.9514 143.591 47.2237 136.093 61.2857ZM111.313 354.257C109.232 352.074 106.943 351.119 104.556 353.659C103.229 355.072 102.94 356.933 104.024 358.686C105.108 360.44 106.791 361.026 108.729 360.348C111.293 359.45 112.307 357.604 111.313 354.257Z" fill="white"/>
<path d="M113.152 356.235C113.152 358.72 110.914 360.735 108.152 360.735C105.391 360.735 103.152 358.72 103.152 356.235C103.152 353.749 105.391 351.735 108.152 351.735C110.914 351.735 113.152 353.749 113.152 356.235Z" fill="white"/>
</g>
<defs>
<clipPath id="clip0_2_99">
<rect width="465" height="451" fill="white"/>
</clipPath>
</defs>
</svg>
