<svg width="465" height="451" viewBox="0 0 465 451" fill="none" xmlns="http://www.w3.org/2000/svg">
<mask id="mask0_25_27" style="mask-type:alpha" maskUnits="userSpaceOnUse" x="31" y="9" width="400" height="435">
<ellipse cx="230.802" cy="226.167" rx="199.802" ry="217.167" fill="#D9D9D9"/>
</mask>
<g mask="url(#mask0_25_27)">
<path d="M225.5 195.5L431 193V268H292L225.5 195.5Z" fill="#7D3AD7"/>
<path d="M224.5 7.49976C224.5 7.49976 296.4 -2.17664 285 18.9998C141 286.5 216 184.5 272.5 220.546C329 256.591 250.095 355.321 219 442L102.107 437.198C102.107 437.198 132.072 243.092 117.09 220.546C102.107 198 224.5 7.49976 224.5 7.49976Z" fill="#00EAFF"/>
<path d="M-84.72 193.472L142.906 208C142.127 221.782 140.739 230.83 155 240L142.906 268.066H-86.2898L-84.72 193.472Z" fill="#7D3AD7"/>
<path d="M-69.1628 212.725C-77.928 212.772 -85.0708 205.705 -85.1168 196.94L-86.0182 25.1016C-86.0642 16.3364 -78.9959 9.19273 -70.2307 9.14574L235.361 7.50722C247.732 7.44089 255.417 20.9258 249.056 31.537L145.712 203.934C142.86 208.692 137.731 211.616 132.183 211.646L-69.1628 212.725Z" fill="black"/>
<path d="M455.439 8.84665C464.204 8.87957 471.299 16.0119 471.285 24.7772L471.02 196.616C471.007 205.381 463.89 212.46 455.125 212.427L212.699 211.517C200.944 211.473 193.287 199.109 198.496 188.582L283.373 17.0606C286.053 11.6462 291.579 8.23132 297.626 8.25403L455.439 8.84665Z" fill="black"/>
<path d="M-69.086 444.055C-77.8512 444.102 -84.9941 437.035 -85.04 428.27L-85.9415 256.431C-85.9874 247.666 -78.9191 240.523 -70.1539 240.476L238.565 238.82C250.965 238.754 258.646 252.296 252.226 262.906L147.909 435.308C145.05 440.035 139.938 442.935 134.414 442.964L-69.086 444.055Z" fill="black"/>
<path d="M454.525 240.92C463.29 240.97 470.393 248.116 470.39 256.881L470.328 428.719C470.325 437.484 463.217 444.549 454.451 444.5L220.063 443.17C208.389 443.104 200.714 430.88 205.752 420.375L287.931 249.003C290.569 243.502 296.141 240.022 302.254 240.056L454.525 240.92Z" fill="black"/>
</g>
</svg>
