<svg width="465" height="451" viewBox="0 0 465 451" fill="none" xmlns="http://www.w3.org/2000/svg">
<path d="M101.34 140.945C101.455 140.866 101.57 140.786 102.058 140.428C102.696 138.75 103.182 137.351 103.176 135.954C103.163 133.464 102.701 130.976 102.692 128.486C102.639 114.927 102.682 101.368 102.646 87.8082C102.643 86.3518 102.346 84.8963 102.186 83.4404C102.149 82.4588 102.113 81.4772 102.24 79.9763C102.505 78.072 102.608 76.6871 102.71 75.3022C103.543 72.6255 105.755 71.9925 108.111 71.9884C124.371 71.9601 140.632 71.9972 156.893 72.0589C159.747 72.0698 161.904 73.2537 161.929 76.4455C162.001 85.9295 161.955 95.4143 161.955 105.066C154.708 105.066 147.798 105.066 140.473 105.066C140.473 101.33 140.473 97.8442 140.473 94.17C134.598 94.17 129.137 94.17 123.34 94.17C123.34 101.551 123.34 108.799 123.34 116.481C128.895 116.481 134.447 116.481 140.51 116.481C140.51 122.237 140.51 127.577 140.507 133.544C141.132 136.077 138.78 139.5 143.049 139.554C150.94 139.655 158.833 139.577 166.724 139.639C168.616 139.654 169.399 138.918 169.385 137.01C169.362 134.042 169.504 131.072 169.794 128.036C173.382 124.566 176.709 125.658 180.46 127.568C183.675 129.205 186.947 131.594 191.003 130.444C191.003 138.282 191.034 145.835 191.019 153.388C191.005 160.969 190.265 161.706 182.845 161.738C180.098 161.75 177.352 161.76 174.605 161.763C170.645 161.767 166.685 161.764 162.325 161.764C162.325 168.717 162.325 175.174 162.325 181.563C154.869 181.563 147.831 181.563 140.358 181.563C140.358 174.884 140.358 168.438 140.358 162.005C134.463 162.005 129.014 162.005 123.129 162.005C123.129 171.852 123.129 181.508 123.129 191.242C115.888 191.242 109.087 191.242 101.96 191.242C101.96 181.35 101.96 171.689 101.96 161.864C98.5687 161.864 95.5038 161.864 92.4565 161.684C93.9297 161.086 96.0122 161.139 96.7378 160.173C101.005 154.491 101.203 147.698 101.34 140.945Z" fill="#FD9835"/>
<path d="M247.706 253.205C247.686 290.401 247.666 327.596 247.653 364.791C247.653 365.242 247.759 365.693 247.896 366.79C253.743 366.79 259.638 366.79 265.864 367.13C266.271 373.172 266.349 378.874 266.426 384.577C266.426 384.577 266.363 384.909 266.166 385.134C265.771 385.48 265.573 385.6 265.376 385.72C260.915 385.795 256.454 385.892 251.993 385.939C247.697 385.984 247.655 385.988 247.644 390.479C247.618 401.937 247.604 413.396 247.597 424.854C247.595 427.718 247.639 430.582 247.715 433.765C247.715 435.214 247.631 436.344 247.614 437.475C247.476 446.44 240.093 452.431 231.126 450.703C233.994 450.989 234.914 449.856 234.284 447.066C233.987 445.753 234.142 444.332 234.138 442.96C234.073 423.732 234.015 404.503 233.986 384.952C234.002 378.675 233.987 372.721 234.006 366.443C234.049 328.488 234.057 290.859 234.349 253.181C238.987 252.723 243.34 252.314 247.693 251.904C247.693 251.904 247.751 251.864 247.679 252.099C247.64 252.625 247.673 252.915 247.706 253.205Z" fill="#D26A2C"/>
<path d="M327.555 259.463C332.346 259.434 337.137 259.344 341.927 259.403C343.979 259.428 344.787 258.665 344.726 256.592C344.632 253.401 344.742 250.205 345.024 246.748C346.003 247.017 346.75 247.519 347.44 248.088C350.57 250.667 353.503 253.538 356.86 255.772C359.588 257.588 362.79 258.613 363.489 262.445C363.615 263.135 364.687 263.652 365.327 264.57C365.561 269.972 365.79 275.052 366.02 280.133C365.822 291.13 365.625 302.128 365.148 313.39C362.014 312.66 359.11 311.789 356.32 310.639C352.449 309.045 348.664 307.242 344.842 305.528C345.057 302.742 343.806 301.796 341.024 301.974C337.409 302.205 333.767 301.952 330.14 302.057C328.072 302.118 327.316 301.301 327.358 299.27C327.431 295.643 327.34 292.012 327.354 287.755C327.403 285.047 327.417 282.967 327.43 280.682C327.411 280.342 327.392 280.207 327.398 279.767C327.4 277.836 327.377 276.21 327.401 274.261C327.484 269.114 327.519 264.288 327.555 259.463Z" fill="#655B7C"/>
<path d="M169.976 82.7123C169.918 75.1634 169.86 67.6145 169.92 59.467C170.03 57.8754 170.023 56.8826 170.016 55.8898C171.378 33.2383 188.675 11.2249 211.746 3.84742C218.712 1.61983 226.261 1.21623 233.777 0.38208C234.002 7.65541 233.993 14.5238 233.678 21.4451C220.002 21.5376 208.939 26.5844 200.387 36.8902C194.671 43.7784 191.897 51.9016 190.634 60.7682C186.586 60.7992 182.746 60.5584 178.939 60.812C177.638 60.8986 175.602 61.9888 175.302 63.0258C173.758 68.3575 172.706 73.8299 171.395 79.2318C171.103 80.4359 170.458 81.5544 169.976 82.7123Z" fill="#FB8635"/>
<path d="M169.902 83.0267C170.458 81.5545 171.103 80.436 171.395 79.2319C172.706 73.83 173.758 68.3576 175.302 63.026C175.602 61.9889 177.638 60.8988 178.939 60.8121C182.746 60.5586 186.586 60.7993 190.683 61.0884C190.941 75.1385 190.919 88.9465 190.935 102.754C190.936 103.64 191.225 104.525 191.524 105.535C192.245 105.605 192.822 105.551 193.718 105.437C198.201 105.426 202.364 105.475 206.639 105.779C206.883 111.514 207.097 116.996 207.053 122.475C207.047 123.223 205.858 124.439 205.035 124.624C200.506 125.637 195.921 126.397 191.244 127.518C191.093 128.581 191.053 129.37 191.014 130.159C186.947 131.594 183.675 129.205 180.46 127.568C176.709 125.658 173.382 124.566 169.733 127.722C169.523 120.005 169.593 112.538 169.662 105.07C169.717 97.8269 169.773 90.5839 169.902 83.0267Z" fill="#FD9135"/>
<path d="M34.5474 234.688C23.6431 203.509 33.61 162.317 71.5865 146.026C73.9336 148.216 71.5043 148.751 70.5782 149.61C66.9474 152.98 66.9143 154.262 70.0339 157.909C70.9794 159.015 71.3063 160.732 71.6675 162.229C71.9669 163.47 71.9004 164.799 71.9339 165.252C73.8679 165.96 75.0755 166.402 76.2224 166.858C76.1617 166.871 76.1156 166.756 75.9402 166.825C75.5734 167.052 75.382 167.211 75.0571 167.556C64.2216 174.441 56.9417 183.705 53.552 196.206C52.8504 198.382 52.3119 200.364 51.6209 202.58C51.355 204.164 51.2414 205.514 51.2184 206.903C51.3091 206.944 51.2901 207.141 51.0402 207.235C49.6095 207.699 48.0965 207.727 47.3017 208.496C41.9316 213.695 37.3907 219.294 37.1981 227.426C37.1402 229.866 35.4758 232.268 34.5474 234.688Z" fill="#FB7E34"/>
<path d="M328.129 72.2277C339.172 72.1258 350.215 72.0239 361.582 71.9094C365.03 73.2449 365.581 75.8032 365.573 78.9134C365.52 99.2612 365.577 119.609 365.766 140.245C365.933 140.533 365.97 140.507 365.734 140.381C365.216 139.09 364.724 137.931 364.691 136.76C364.583 133.01 364.592 129.255 364.662 125.503C364.706 123.16 363.883 122.099 361.359 121.809C358.872 121.524 356.456 120.499 354.045 119.691C350.926 118.645 347.843 117.493 344.745 116.387C344.745 109.117 344.745 101.847 344.745 94.1157C339.007 94.1157 333.579 94.1157 327.952 93.8767C327.878 86.5011 328.003 79.3644 328.129 72.2277Z" fill="#F9653E"/>
<path d="M288.262 28.5265C292.787 36.2954 296.302 44.4438 297.539 53.4339C297.756 55.0074 297.832 56.6003 297.954 58.7717C298.024 60.4875 298.114 61.6158 298.205 62.744C298.21 63.2654 298.216 63.7868 298.131 64.8733C297.975 78.5148 297.91 91.591 297.709 104.423C297.469 102.933 297.278 101.688 297.273 100.442C297.242 93.3454 297.323 86.2478 297.185 79.1541C297.162 77.9782 296.558 76.455 295.691 75.7182C292.499 73.0054 289.533 73.5816 286.741 77.2047C284.933 79.5506 283.571 82.4387 281.315 84.1889C278.695 86.2219 277.916 88.3855 277.94 91.4859C277.969 95.1998 277.49 98.9177 277.159 102.319C277.081 89.7732 277.127 77.5418 277.034 65.3115C277.009 62.0105 276.837 58.6638 276.26 55.4224C274.396 44.959 268.683 36.7521 260.779 29.6872C261.665 29.0127 262.648 28.0848 263.348 28.2638C266.095 28.9669 268.715 30.1676 271.461 30.8791C272.872 31.2447 274.803 31.5447 275.888 30.8788C279.811 28.4705 280.354 25.81 278.391 21.5823C277.324 19.2833 276.294 16.9668 275.248 14.6582C278.062 17.3514 280.876 20.0447 283.897 22.8413C284.104 22.9446 284.142 22.9179 284.171 23.1094C284.402 23.4693 284.604 23.6378 284.806 23.8063C285.169 24.3597 285.532 24.9131 286.112 25.7387C286.512 26.1701 286.695 26.3293 286.878 26.4885C287.031 26.8291 287.185 27.1698 287.53 27.789C287.901 28.2206 288.082 28.3735 288.262 28.5265Z" fill="#FDA537"/>
<path d="M397.241 146.978C417.981 157.037 430.297 173.732 434.588 196.076C436.01 203.482 435.236 211.31 435.162 219.249C430.994 220.984 422.192 218.495 420.025 215.137C418.378 212.585 417.077 209.81 415.572 206.853C414.849 203.541 414.175 200.51 413.503 197.215C412.113 189.966 408.364 184.122 404.763 178.287C405.504 177.814 406.247 177.473 406.422 176.945C407.564 173.498 408.541 169.998 409.653 166.541C411.256 161.559 409.978 157.23 405.765 154.159C404.227 153.037 402.36 152.342 400.91 151.132C399.508 149.962 398.45 148.379 397.241 146.978Z" fill="#F2474E"/>
<path d="M344.806 305.846C348.664 307.242 352.449 309.045 356.32 310.64C359.11 311.789 362.014 312.66 365.114 313.713C365.392 321.178 365.454 328.586 365.446 335.994C365.44 341.746 364.006 343.066 358.297 342.785C357.616 342.751 356.932 342.765 355.976 342.805C355.164 342.825 354.624 342.796 353.506 342.754C345.176 342.763 337.423 342.785 329.671 342.807C329.539 342.765 329.408 342.723 329.078 342.309C328.65 335.794 328.421 329.653 328.192 323.511C333.501 323.276 338.811 323.041 344.77 322.777C344.77 316.995 344.77 311.579 344.806 305.846Z" fill="#456D8B"/>
<path d="M275.135 14.4566C276.294 16.9668 277.324 19.2833 278.391 21.5823C280.354 25.81 279.811 28.4705 275.888 30.8788C274.803 31.5447 272.872 31.2447 271.461 30.8792C268.715 30.1676 266.095 28.9669 263.348 28.2638C262.648 28.0849 261.665 29.0127 260.59 29.5835C260.05 29.4534 259.732 29.1718 259.317 28.7922C259.076 28.5719 258.915 28.4824 258.727 28.4231C258.718 28.4205 258.705 28.4057 258.69 28.2746C258.433 28.0773 258.192 28.011 257.714 27.8682C253.781 26.3893 250.083 24.987 246.241 23.5562C246.096 23.5277 245.8 23.5281 245.705 23.3232C245.2 22.9749 244.791 22.8316 244.159 22.5326C240.619 22.0488 237.302 21.7205 233.984 21.3923C233.993 14.5239 234.002 7.65557 234.021 0.461423C234.78 0.0908203 235.53 0.0459861 236.675 0.0905267C237.07 0.179891 237.316 0.158769 237.316 0.158769C251.564 0.366446 263.903 5.67848 275.135 14.4566Z" fill="#FDB738"/>
<path d="M397.226 146.984C398.45 148.379 399.508 149.962 400.91 151.132C402.36 152.342 404.227 153.037 405.765 154.158C409.978 157.23 411.256 161.559 409.653 166.541C408.541 169.998 407.564 173.498 406.422 176.945C406.247 177.473 405.504 177.814 404.765 178.277C404.506 178.313 404.49 178.311 404.487 178.061C403.751 177.1 403.018 176.39 402.324 175.663C402.362 175.646 402.392 175.725 402.293 175.56C401.992 175.237 401.79 175.08 401.631 174.937C401.673 174.95 401.642 175.033 401.608 174.806C401.108 174.276 400.641 173.973 400.215 173.648C400.255 173.627 400.291 173.711 400.195 173.544C399.888 173.232 399.678 173.087 399.524 172.95C399.579 172.957 399.557 173.067 399.47 172.882C399.045 172.493 398.706 172.289 398.353 172.092C398.34 172.099 398.349 172.07 398.244 171.94C397.983 171.649 397.802 171.521 397.619 171.422C397.64 171.415 397.626 171.458 397.563 171.246C397.029 170.754 396.557 170.473 396.135 170.178C396.184 170.165 396.205 170.265 396.085 170.087C395.59 169.731 395.215 169.552 394.614 169.306C389.041 166.956 383.694 164.673 378.135 162.259C376.919 162.029 375.913 161.93 374.911 161.854C374.914 161.876 374.869 161.882 374.666 161.712C372.766 160.902 370.053 160.686 369.571 159.535C368.327 156.57 366.708 152.639 367.735 150.106C369.316 146.206 369.03 143.714 366.297 141.092C366.707 141.005 366.976 140.931 367.245 140.857C369.204 140.896 371.163 140.935 373.576 141.062C374.268 141.171 374.506 141.192 374.744 141.213C374.744 141.213 374.851 141.131 375.09 141.298C376.33 141.452 377.331 141.438 378.332 141.425C378.715 141.466 379.097 141.507 379.857 141.826C381.147 142.207 382.058 142.311 382.969 142.414C383.169 142.256 383.385 142.231 383.92 142.644C385.641 143.226 387.06 143.502 388.479 143.779C388.699 143.673 388.917 143.676 389.451 144.041C390.821 144.611 391.874 144.929 392.927 145.248C392.927 145.248 393.258 145.257 393.559 145.446C394.099 145.722 394.337 145.81 394.576 145.898C394.576 145.898 394.764 145.865 394.921 146.154C395.783 146.635 396.487 146.827 397.192 147.019C397.192 147.019 397.21 146.99 397.226 146.984Z" fill="#FC4C4A"/>
<path d="M233.956 385.275C234.015 404.503 234.073 423.731 234.138 442.96C234.142 444.332 233.987 445.753 234.284 447.066C234.914 449.856 233.994 450.989 230.886 450.578C225.05 449.441 221.613 445.837 220.968 440.188C221.023 439.929 221.001 439.987 221.001 439.987C220.908 431.582 220.815 423.176 220.653 414.455C220.631 406.682 220.678 399.225 220.72 391.414C220.714 391.059 220.719 391.302 220.719 391.302C220.719 389.782 220.719 388.261 221.002 386.218C225.509 385.556 229.732 385.415 233.956 385.275Z" fill="#FEC130"/>
<path d="M366.342 280.125C365.79 275.052 365.561 269.972 365.341 264.263C365.386 262.196 365.421 260.758 365.456 259.321C375.889 259.979 385.535 257.554 394.627 252.11C395.125 252.791 395.222 253.476 395.614 253.773C400.666 257.603 405.76 261.377 410.844 265.165C400.494 274.09 388.402 278.811 374.867 279.959C372.148 280.19 369.4 280.074 366.342 280.125Z" fill="#963F5D"/>
<path d="M34.5572 234.95C35.4758 232.268 37.1402 229.866 37.1981 227.426C37.3908 219.294 41.9317 213.695 47.3017 208.496C48.0965 207.726 49.6095 207.699 51.0677 207.552C51.8714 212.707 52.3977 217.638 52.9241 222.569C52.9678 222.821 53.0116 223.072 53.0865 223.724C53.2649 224.532 53.4122 224.939 53.5594 225.347C53.5594 225.347 53.6062 225.589 53.6625 225.924C53.9515 226.817 54.1843 227.374 54.417 227.932C54.417 227.932 54.4489 228.223 54.4897 228.565C54.7327 229.258 54.9349 229.609 55.1371 229.959C57.3261 233.912 59.5151 237.865 61.5292 242.036C56.2825 243.133 54.4792 245.539 55.4239 250.509C56.0587 253.849 57.1117 257.113 57.6804 260.461C58.047 262.619 57.8754 264.869 57.9451 267.077C46.8544 258.875 38.9228 248.355 34.5572 234.95Z" fill="#FB8635"/>
<path d="M105.198 342.062C102.078 340.891 102.061 338.191 102.054 335.545C102.004 317.292 101.98 299.039 101.961 280.417C101.976 280.048 102.052 279.954 102.187 280.212C102.434 281.829 102.64 283.188 102.643 284.547C102.673 295.988 102.66 307.43 102.676 318.871C102.678 320.092 102.785 321.312 102.868 323.057C109.765 322.694 116.342 322.347 123.101 322.268C126.264 322.706 129.243 322.877 132.372 323.249C133.614 323.653 134.737 324.126 135.795 324.009C138.74 323.683 140.034 324.901 140.015 327.795C139.985 332.28 140.007 336.766 140.007 342.062C128.838 342.062 117.018 342.062 105.198 342.062Z" fill="#DFC040"/>
<path d="M76.283 166.844C75.0754 166.402 73.8679 165.96 71.9338 165.252C71.9003 164.799 71.9669 163.47 71.6674 162.229C71.3063 160.732 70.9793 159.015 70.0339 157.909C66.9143 154.262 66.9474 152.98 70.5782 149.61C71.5043 148.751 73.9335 148.216 71.8364 146.004C80.8391 141.474 90.6897 140.595 101.032 140.843C101.203 147.698 101.005 154.491 96.7378 160.173C96.0122 161.139 93.9297 161.086 92.2171 161.808C86.7344 163.691 81.5087 165.267 76.283 166.844Z" fill="#FB8635"/>
<path d="M105.246 342.206C117.018 342.062 128.838 342.062 140.007 342.062C140.007 336.765 139.985 332.28 140.015 327.795C140.034 324.901 138.74 323.682 135.795 324.009C134.737 324.126 133.614 323.653 132.684 323.2C135.161 322.872 137.475 322.794 139.97 322.705C140.202 322.475 140.253 322.253 140.354 321.772C140.374 320.988 140.345 320.463 140.369 319.68C140.395 318.898 140.367 318.374 140.393 317.601C140.434 316.845 140.421 316.338 140.617 315.622C147.819 315.361 154.812 315.308 161.759 315.24C161.712 315.225 161.684 315.318 161.725 315.512C161.875 315.946 161.984 316.185 162.094 316.424C162.063 321.299 162.032 326.174 161.965 331.673C161.929 334.569 161.93 336.841 161.931 339.113C161.475 342.077 159.031 343.008 156.749 343.178C153.267 343.437 149.731 342.964 146.218 342.805C145.079 342.754 143.941 342.675 142.802 342.673C130.556 342.652 118.311 342.643 105.743 342.628C105.422 342.625 105.293 342.35 105.246 342.206Z" fill="#C2C750"/>
<path d="M58.0258 267.243C57.8754 264.869 58.0469 262.619 57.6803 260.461C57.1116 257.113 56.0586 253.849 55.4238 250.509C54.4791 245.539 56.2824 243.133 61.6108 242.243C68.5959 250.01 76.5581 255.864 86.7458 258.508C83.6457 259.725 80.5688 260.649 77.1792 261.666C77.7734 263.014 78.2736 264.135 78.7638 265.261C79.8952 267.861 81.1235 270.424 82.1179 273.075C82.9133 275.195 82.1976 276.874 80.0288 277.797C74.6195 275.576 69.2103 273.354 63.5884 270.799C62.9234 270.276 62.4711 270.086 62.0187 269.896C61.3836 269.537 60.7486 269.178 60.0525 268.501C59.5874 268.014 59.1834 267.844 58.7793 267.675C58.5551 267.586 58.3308 267.498 58.0258 267.243Z" fill="#FD9835"/>
<path d="M410.842 265.147C405.76 261.377 400.666 257.602 395.614 253.773C395.222 253.476 395.125 252.791 394.855 252.039C394.819 251.791 394.839 251.803 394.987 251.737C395.327 251.549 395.484 251.393 395.605 251.201C395.605 251.201 395.595 251.171 395.801 251.14C396.291 250.845 396.576 250.582 396.861 250.318C396.861 250.318 396.876 250.368 397.008 250.296C397.288 250.048 397.436 249.873 397.585 249.697C397.585 249.697 397.615 249.751 397.741 249.662C398.016 249.401 398.164 249.229 398.313 249.056C398.313 249.056 398.33 249.1 398.456 249.008C398.766 248.778 398.911 248.608 399.019 248.405C399.019 248.405 399.03 248.425 399.163 248.341C399.475 248.127 399.617 247.964 399.72 247.768C403.451 242.509 407.183 237.249 411.127 232.115C411.47 236.768 413.476 239.431 418.139 240.612C421.356 241.428 424.253 243.51 427.293 245.025C424.118 251.883 419.344 257.526 413.562 262.861C413.043 263.194 412.901 263.36 412.796 263.558C412.642 263.728 412.488 263.897 411.995 264.196C411.377 264.584 411.098 264.843 410.819 265.102C410.819 265.102 410.841 265.129 410.842 265.147Z" fill="#BA3C57"/>
<path d="M427.465 244.864C424.253 243.51 421.356 241.428 418.139 240.613C413.476 239.431 411.47 236.768 411.297 231.945C412.021 228.747 412.789 225.846 413.758 222.52C414.513 217.109 415.068 212.122 415.622 207.135C417.077 209.81 418.378 212.585 420.025 215.137C422.192 218.495 430.994 220.985 435.109 219.531C434.724 228.502 431.948 236.838 427.465 244.864Z" fill="#D03D54"/>
<path d="M80.2837 277.889C82.1976 276.874 82.9133 275.195 82.1179 273.075C81.1235 270.424 79.8952 267.861 78.7638 265.261C78.2736 264.135 77.7734 263.014 77.1792 261.667C80.5688 260.649 83.6457 259.725 86.9664 258.651C91.9087 258.808 96.6072 259.113 101.634 259.724C101.993 266.67 102.022 273.312 102.052 279.954C102.052 279.954 101.976 280.048 101.947 280.102C94.792 279.43 87.6652 278.705 80.2837 277.889Z" fill="#FDA537"/>
<path d="M169.42 105.103C169.593 112.538 169.523 120.005 169.515 127.787C169.504 131.071 169.362 134.042 169.385 137.01C169.399 138.918 168.616 139.654 166.724 139.639C158.833 139.577 150.94 139.655 143.049 139.554C138.78 139.5 141.132 136.077 140.537 133.862C147.215 133.554 153.863 133.46 160.505 133.602C163.023 133.655 163.923 132.902 163.87 130.3C163.723 123.199 163.832 116.093 163.839 108.989C163.84 107.865 163.839 106.741 163.839 105.135C165.819 105.135 167.499 105.135 169.42 105.103Z" fill="#A84135"/>
<path d="M102.125 83.7534C102.346 84.896 102.643 86.3515 102.646 87.8079C102.682 101.367 102.639 114.927 102.692 128.486C102.701 130.976 103.163 133.463 103.176 135.953C103.183 137.35 102.696 138.75 102.233 140.313C102.045 121.674 102.055 102.871 102.125 83.7534Z" fill="#FB8635"/>
<path d="M35.1858 113.27C34.4562 114.527 33.8327 115.954 32.7924 116.393C32.1766 116.652 30.4844 115.553 30.0618 114.683C29.7472 114.036 30.718 111.928 31.0723 111.939C32.4301 111.979 33.7701 112.613 35.1858 113.27Z" fill="#D26A2C"/>
<path d="M32.5953 308.242C33.6302 309.281 34.5701 310.268 35.0451 311.442C35.145 311.689 33.5375 313.111 32.7151 313.112C31.8692 313.114 30.2201 311.788 30.3164 311.482C30.6853 310.311 31.6147 309.317 32.5953 308.242Z" fill="#DFC040"/>
<path d="M433.543 308.403C434.542 309.305 435.528 310.134 435.894 311.18C436.01 311.51 434.527 312.81 433.662 312.946C432.942 313.059 432.056 312.119 431.243 311.646C431.925 310.568 432.607 309.491 433.543 308.403Z" fill="#9D2837"/>
<path d="M432.944 111.759C434.142 112.395 435.282 112.962 435.908 113.88C436.111 114.176 435.116 115.804 434.391 116.072C433.695 116.33 431.88 115.625 431.876 115.327C431.862 114.163 432.371 112.993 432.944 111.759Z" fill="#214758"/>
<path d="M388.277 143.596C387.06 143.502 385.641 143.225 384.063 142.737C385.294 142.821 386.685 143.117 388.277 143.596Z" fill="#F2474E"/>
<path d="M102.558 75.5107C102.608 76.687 102.505 78.0719 102.29 79.685C102.254 78.5152 102.33 77.1173 102.558 75.5107Z" fill="#FB8635"/>
<path d="M392.757 145.081C391.874 144.929 390.821 144.61 389.592 144.133C390.474 144.287 391.531 144.601 392.757 145.081Z" fill="#F2474E"/>
<path d="M378.061 141.341C377.331 141.439 376.33 141.452 375.145 141.338C375.904 141.226 376.847 141.241 378.061 141.341Z" fill="#F2474E"/>
<path d="M169.916 56.094C170.023 56.8826 170.03 57.8755 169.94 59.1526C169.833 58.3907 169.824 57.3444 169.916 56.094Z" fill="#A84135"/>
<path d="M397.042 146.866C396.487 146.827 395.783 146.635 394.986 146.224C395.56 146.242 396.226 146.478 397.042 146.866Z" fill="#F2474E"/>
<path d="M62.0982 270.053C62.4711 270.086 62.9235 270.276 63.4045 270.625C63.0146 270.593 62.5961 270.401 62.0982 270.053Z" fill="#FB8635"/>
<path d="M382.752 142.238C382.058 142.311 381.147 142.207 380.018 141.938C380.712 141.868 381.623 141.965 382.752 142.238Z" fill="#F2474E"/>
<path d="M58.8615 267.833C59.1833 267.844 59.5874 268.014 59.94 268.311C59.5737 268.289 59.2586 268.14 58.8615 267.833Z" fill="#FB8635"/>
<path d="M411.01 265.058C411.098 264.843 411.377 264.584 411.844 264.282C411.756 264.496 411.478 264.755 411.01 265.058Z" fill="#963F5D"/>
<path d="M374.649 141.148C374.506 141.192 374.268 141.171 373.852 141.15C373.968 141.128 374.261 141.106 374.649 141.148Z" fill="#F9653E"/>
<path d="M367.026 140.784C366.976 140.931 366.707 141.005 366.241 140.945C366.045 140.812 365.97 140.508 365.97 140.508C365.97 140.508 365.933 140.533 365.914 140.545C366.199 140.608 366.503 140.659 367.026 140.784Z" fill="#F9653E"/>
<path d="M220.892 440.054C221.001 439.987 221.023 439.929 221.012 439.899C220.927 439.953 220.855 440.037 220.892 440.054Z" fill="#F9EB7F"/>
<path d="M237.276 0.0887467C237.316 0.158647 237.07 0.179768 236.952 0.156738C236.921 -0.0173734 237.056 -0.0556606 237.276 0.0887467Z" fill="#FB8635"/>
<path d="M394.449 145.74C394.337 145.81 394.099 145.723 393.706 145.523C393.809 145.468 394.066 145.525 394.449 145.74Z" fill="#F2474E"/>
<path d="M412.956 263.498C412.901 263.36 413.044 263.194 413.366 262.978C413.446 263.126 413.314 263.307 412.956 263.498Z" fill="#963F5D"/>
<path d="M327.354 274.583C327.377 276.21 327.399 277.836 327.292 279.866C327.027 280.41 326.91 280.565 326.491 280.763C317.934 280.822 309.697 280.91 301.461 280.846C298.947 280.826 298.008 281.775 298.035 284.279C298.14 293.886 298.121 303.494 298.148 313.103C298.124 314.489 298.101 315.875 298.038 317.878C298.055 333.191 298.11 347.887 298.166 362.583C298 362.806 297.835 363.028 297.188 363.272C295.741 363.341 294.774 363.389 293.807 363.437C288.761 363.456 283.715 363.476 278.166 363.463C277.536 363.433 277.409 363.435 277.282 363.437C277.103 362.105 276.772 360.774 276.768 359.442C276.728 345.141 276.739 330.84 276.736 316.539C276.734 311.464 276.733 311.453 271.804 311.431C267.832 311.414 263.859 311.428 259.678 311.428C259.678 304.071 259.678 297.147 259.678 289.563C262.313 289.563 264.879 289.563 267.446 289.563C276.658 289.563 276.668 289.563 276.718 280.215C276.745 275.181 276.697 270.147 276.75 265.114C276.799 260.494 277.873 259.433 282.401 259.417C289.608 259.39 296.816 259.394 304.597 259.3C307.756 258.2 309.562 259.263 311.641 260.917C314.169 262.927 317.131 264.614 320.17 265.691C322.645 266.567 323.894 267.795 324.643 270.221C325.132 271.803 326.423 273.138 327.354 274.583Z" fill="#2B969D"/>
<path d="M274.631 220.925C270.134 234.958 261.042 244.482 246.447 249.235C241.954 249.716 237.985 250.087 233.971 250.14C233.931 242.77 233.936 235.717 234.222 228.596C243.123 227.643 248.99 223.089 251.743 214.939C254.336 207.262 251.941 199.106 245.142 194.12C241.964 191.789 237.735 190.891 233.967 189.144C233.925 188.815 233.898 188.685 233.882 188.303C233.9 187.547 233.906 187.042 233.948 186.265C233.967 185.258 233.949 184.524 233.936 183.469C233.932 179.692 233.922 176.237 233.946 172.478C233.963 170.154 233.946 168.134 234.228 166.094C238.382 166.596 242.236 167.12 246.305 167.755C254.12 170.591 260.601 174.957 265.927 181.035C270.646 186.422 273.214 192.884 275.257 199.913C276.388 207.16 276.262 214.065 274.631 220.925Z" fill="#A84135"/>
<path d="M358.48 221.038C354.264 221.16 350.047 221.403 345.83 221.385C322.966 221.289 300.101 221.127 276.892 220.779C276.517 220.451 276.487 220.333 276.529 219.942C277.063 215.728 277.524 211.788 278.137 208.054C278.812 210.655 280.616 210.631 282.534 210.629C303.526 210.601 324.518 210.607 345.51 210.606C347.073 210.606 348.636 210.619 350.249 210.861C352.086 213.214 353.887 215.318 355.655 217.451C356.626 218.622 357.54 219.841 358.48 221.038Z" fill="#A84135"/>
<path d="M327.978 323.304C328.421 329.653 328.651 335.794 328.883 342.237C323.142 342.608 317.397 342.676 311.162 342.756C310.556 342.778 310.44 342.789 310.324 342.8C307.313 342.241 306.232 340.28 306.249 337.389C306.288 330.995 306.329 324.599 306.214 318.206C306.173 315.929 307.029 315.225 309.222 315.281C314.129 315.406 319.049 315.511 323.948 315.283C326.925 315.144 327.788 316.276 327.523 319.024C327.394 320.361 327.671 321.738 327.978 323.304Z" fill="#348897"/>
<path d="M327.401 274.261C326.423 273.138 325.132 271.803 324.643 270.221C323.894 267.795 322.645 266.567 320.17 265.691C317.131 264.614 314.169 262.928 311.641 260.917C309.562 259.263 307.756 258.2 304.908 259.291C304.725 253.44 304.878 247.512 304.845 241.584C304.833 239.387 305.57 238.539 307.809 238.58C313.395 238.682 318.985 238.675 324.571 238.575C326.661 238.538 327.384 239.339 327.368 241.374C327.321 247.189 327.403 253.004 327.495 259.141C327.519 264.288 327.483 269.114 327.401 274.261Z" fill="#348897"/>
<path d="M365.456 259.005C365.421 260.758 365.386 262.196 365.336 263.941C364.687 263.652 363.615 263.135 363.489 262.445C362.79 258.613 359.588 257.588 356.86 255.773C353.502 253.538 350.57 250.667 347.44 248.088C346.75 247.519 346.003 247.017 345.064 246.429C344.84 240.831 344.836 235.288 344.952 229.355C345.172 228.867 345.257 228.759 345.327 228.639C351.028 228.586 356.732 228.624 362.428 228.438C364.898 228.357 365.552 229.372 365.529 231.655C365.436 240.666 365.47 249.678 365.456 259.005Z" fill="#7C5374"/>
<path d="M298.378 312.967C298.121 303.494 298.14 293.886 298.035 284.278C298.008 281.775 298.947 280.826 301.461 280.846C309.697 280.91 317.934 280.822 326.645 280.806C327.119 280.819 327.431 280.887 327.431 280.887C327.417 282.967 327.403 285.047 327.327 287.443C320.531 287.714 313.796 287.715 307.063 287.6C304.781 287.561 304.068 288.601 304.134 290.724C304.329 296.991 304.342 303.264 304.629 309.526C304.728 311.68 304.006 312.435 301.963 312.417C300.846 312.407 299.727 312.684 298.378 312.967Z" fill="#214758"/>
<path d="M412.17 221.182C405.939 221.129 399.708 221.075 392.924 220.814C390.799 220.477 389.229 220.268 387.656 220.233C382.718 220.123 377.659 215.607 377.342 210.649C389.581 210.4 401.498 210.169 413.474 210.242C413.079 214.092 412.624 217.637 412.17 221.182Z" fill="#D03D54"/>
<path d="M377.019 210.667C377.659 215.607 382.718 220.123 387.656 220.233C389.229 220.268 390.799 220.477 392.605 220.763C381.571 221.008 370.303 221.097 358.757 221.112C357.54 219.841 356.626 218.622 355.654 217.451C353.887 215.319 352.086 213.214 350.555 210.86C358.228 210.401 365.643 210.141 373.06 209.997C374.375 209.972 375.699 210.432 377.019 210.667Z" fill="#BA3C57"/>
<path d="M234.016 250.457C237.985 250.087 241.954 249.717 246.201 249.304C246.875 249.999 247.271 250.738 247.68 251.69C243.34 252.314 238.987 252.723 234.04 253.139C230.654 252.856 227.867 252.488 225.067 252.307C223.627 252.215 222.165 252.456 220.602 252.546C220.491 252.545 220.269 252.551 220.269 252.551C220.492 251.768 220.715 250.986 221.259 249.94C225.725 249.936 229.87 250.196 234.016 250.457Z" fill="#572B34"/>
<path d="M412.309 221.298C412.624 217.637 413.079 214.092 413.515 209.94C413.033 206.063 412.571 202.792 412.221 199.349C412.722 198.61 413.111 198.045 413.501 197.479C414.175 200.51 414.849 203.541 415.572 206.853C415.067 212.122 414.513 217.109 413.742 222.24C413.165 222.061 412.807 221.738 412.309 221.298Z" fill="#2C2834"/>
<path d="M277.985 207.847C277.524 211.788 277.063 215.728 276.42 220.045C276.113 220.579 276.005 220.75 275.916 220.932C275.63 220.928 275.345 220.923 274.845 220.922C276.262 214.065 276.388 207.16 275.496 199.868C276.954 199.503 278.169 199.485 279.138 199.524C278.303 200.361 277.22 201.141 277.218 201.922C277.215 203.897 277.697 205.872 277.985 207.847Z" fill="#2C2834"/>
<path d="M298.275 362.325C298.11 347.887 298.055 333.191 298.05 318.175C298.234 318.291 298.484 318.727 298.483 319.162C298.465 333.464 298.423 347.766 298.275 362.325Z" fill="#214758"/>
<path d="M329.915 342.928C337.423 342.785 345.176 342.763 353.238 342.79C345.751 342.908 337.956 342.978 329.915 342.928Z" fill="#1E2432"/>
<path d="M266.547 384.323C266.348 378.874 266.271 373.172 266.174 367.161C266.426 369.289 266.874 371.723 266.927 374.164C266.999 377.463 266.768 380.768 266.547 384.323Z" fill="#572B34"/>
<path d="M294.008 363.542C294.774 363.389 295.741 363.342 296.993 363.354C296.256 363.491 295.232 363.57 294.008 363.542Z" fill="#214758"/>
<path d="M247.808 253.093C247.673 252.915 247.64 252.625 247.65 252.118C247.765 252.262 247.837 252.621 247.808 253.093Z" fill="#572B34"/>
<path d="M310.351 342.911C310.44 342.789 310.556 342.778 310.843 342.8C310.802 342.896 310.589 342.959 310.351 342.911Z" fill="#1E2432"/>
<path d="M396.672 250.37C396.576 250.582 396.291 250.845 395.812 251.152C395.905 250.937 396.193 250.679 396.672 250.37Z" fill="#963F5D"/>
<path d="M265.563 385.717C265.573 385.6 265.771 385.48 266.132 385.3C266.114 385.398 265.932 385.556 265.563 385.717Z" fill="#572B34"/>
<path d="M277.359 363.51C277.409 363.435 277.536 363.433 277.846 363.482C278.029 363.534 277.74 363.646 277.74 363.646C277.74 363.646 277.436 363.583 277.359 363.51Z" fill="#214758"/>
<path d="M399.565 247.83C399.617 247.964 399.475 248.127 399.153 248.335C399.086 248.194 399.219 248.02 399.565 247.83Z" fill="#963F5D"/>
<path d="M276.084 220.948C276.005 220.75 276.113 220.58 276.348 220.318C276.487 220.333 276.517 220.452 276.568 220.752C276.589 220.934 276.252 220.963 276.084 220.948Z" fill="#572B34"/>
<path d="M345.213 228.665C345.257 228.759 345.172 228.867 344.994 229.03C344.888 228.922 344.95 228.786 345.213 228.665Z" fill="#655B7C"/>
<path d="M398.855 248.465C398.911 248.608 398.766 248.778 398.434 248.999C398.421 248.897 398.556 248.711 398.855 248.465Z" fill="#963F5D"/>
<path d="M398.149 249.121C398.164 249.229 398.016 249.401 397.712 249.652C397.7 249.548 397.843 249.367 398.149 249.121Z" fill="#963F5D"/>
<path d="M397.416 249.757C397.436 249.873 397.288 250.049 396.982 250.301C396.966 250.19 397.106 250.004 397.416 249.757Z" fill="#963F5D"/>
<path d="M395.438 251.247C395.484 251.393 395.327 251.549 394.983 251.74C394.978 251.638 395.125 251.466 395.438 251.247Z" fill="#963F5D"/>
<path d="M233.971 250.14C229.87 250.197 225.725 249.936 221.284 249.696C209.035 245.994 199.825 238.934 194.234 227.556C193.239 225.53 192.587 223.335 191.641 220.725C191.206 215.186 190.905 210.139 190.757 204.869C190.979 203.553 191.048 202.461 191.102 201.262C191.086 201.157 191.176 200.964 191.353 200.762C191.696 199.317 191.864 198.074 192.042 196.839C192.054 196.847 192.03 196.838 192.236 196.699C192.98 194.803 193.519 193.046 194.085 191.313C194.112 191.338 194.047 191.304 194.273 191.241C196.968 188.426 199.59 185.792 201.857 182.882C203.626 180.611 204.953 177.997 206.479 175.528C206.482 175.521 206.497 175.519 206.696 175.488C207.162 175.18 207.429 174.902 207.747 174.67C207.798 174.715 207.677 174.652 207.845 174.61C208.172 174.407 208.331 174.247 208.523 174.123C208.556 174.159 208.488 174.088 208.643 174.038C208.994 173.878 209.139 173.72 209.239 173.491C209.244 173.466 209.294 173.476 209.513 173.475C210.252 173.053 210.772 172.632 211.393 172.115C211.494 172.02 211.756 171.93 211.926 171.893C212.275 171.712 212.454 171.568 212.645 171.391C212.658 171.359 212.725 171.383 212.918 171.37C213.419 171.133 213.726 170.909 214.044 170.704C214.054 170.723 214.027 170.688 214.225 170.682C214.756 170.474 215.088 170.272 215.535 170.001C215.649 169.933 215.912 169.892 216.13 169.89C216.705 169.662 217.061 169.435 217.438 169.257C217.457 169.305 217.394 169.223 217.6 169.225C218.163 169.035 218.52 168.842 218.973 168.585C219.07 168.522 219.302 168.503 219.525 168.514C220.141 168.336 220.534 168.148 220.93 167.966C220.931 167.973 220.92 167.961 221.183 167.982C222.421 167.729 223.397 167.456 224.462 167.133C224.552 167.084 224.755 167.107 225.08 167.154C225.748 167.212 226.091 167.244 226.432 167.231C228.464 167.154 231.045 166.284 232.366 167.212C233.584 168.067 233.45 170.849 233.911 172.782C233.922 176.237 233.932 179.692 233.822 183.647C233.772 184.944 233.842 185.741 233.912 186.539C233.906 187.043 233.9 187.547 233.711 188.384C233.219 189.11 232.91 189.503 232.314 189.924C223.465 190.199 212.864 198.598 214.29 211.148C215.213 219.264 222.152 228.204 233.941 228.664C233.936 235.717 233.931 242.77 233.971 250.14Z" fill="#FB7E34"/>
<path d="M190.749 281.156C190.749 283.772 190.749 286.389 190.749 289.363C196.537 289.363 201.972 289.363 207.69 289.363C207.69 296.753 207.69 303.789 207.69 311.295C202.293 311.295 196.856 311.295 190.945 311.295C190.945 312.978 190.949 314.198 190.945 315.418C190.902 330.082 190.864 344.747 190.802 359.412C190.796 360.658 190.618 361.904 190.082 363.295C189.521 363.469 189.398 363.497 189.275 363.525C182.905 363.525 176.535 363.525 169.561 363.525C169.561 349.895 169.561 336.596 169.561 322.667C169.511 319.278 169.46 316.519 169.445 313.583C169.446 313.288 169.412 313.172 169.422 312.903C169.466 312.75 169.428 312.434 169.543 312.172C169.704 301.76 169.749 291.608 170.131 281.422C177.228 281.31 183.989 281.233 190.749 281.156Z" fill="#56C899"/>
<path d="M102.187 280.212C102.022 273.312 101.993 266.67 101.954 259.702C101.945 259.377 101.945 259.389 102.108 259.156C102.224 251.537 102.177 244.153 102.13 236.768C102.097 236.01 102.064 235.252 102.203 234.002C103.286 229.482 104.033 229.053 108.209 229.175C113.05 229.316 117.898 229.209 122.743 229.21C122.838 235.403 122.933 241.596 122.759 248.26C122.3 250.59 121.862 252.468 121.994 254.304C122.118 256.025 122.844 257.702 123.305 259.399C123.305 259.399 123.296 259.421 123.298 259.737C123.069 271.556 122.815 283.058 122.622 294.562C122.578 297.172 122.747 299.786 122.823 302.625C122.921 303.759 123.014 304.665 123.098 305.888C123.033 311.471 122.975 316.736 122.918 322C116.342 322.347 109.765 322.693 102.868 323.057C102.785 321.312 102.678 320.092 102.676 318.871C102.66 307.43 102.673 295.988 102.643 284.547C102.64 283.187 102.434 281.829 102.187 280.212Z" fill="#FDB738"/>
<path d="M220.713 252.547C222.165 252.456 223.627 252.215 225.067 252.308C227.867 252.488 230.654 252.856 233.756 253.188C234.057 290.859 234.049 328.488 233.686 366.428C229.158 366.695 224.985 366.652 220.793 366.448C220.773 366.285 220.604 366.006 220.604 366.006C220.661 338.351 220.73 310.697 220.766 283.042C220.778 274.014 220.704 264.986 220.693 255.46C220.677 254.841 220.637 254.72 220.596 254.599C220.625 254.299 220.655 253.998 220.729 253.304C220.753 252.789 220.733 252.668 220.713 252.547Z" fill="#FEC130"/>
<path d="M190.809 280.865C183.989 281.233 177.228 281.31 169.835 281.383C159.619 281.382 150.038 281.384 140.454 281.066C140.448 278.14 140.515 275.531 140.427 272.927C140.274 268.422 140.026 263.919 139.818 259.416C140.054 256.444 140.29 253.472 140.706 250.432C140.976 252.183 141.232 254.012 141.118 255.818C140.95 258.464 141.922 259.521 144.645 259.449C150.583 259.292 156.528 259.361 162.469 259.338C170.232 259.349 177.994 259.332 185.756 259.384C189.718 259.41 190.894 260.554 190.926 264.482C190.97 269.845 190.894 275.21 190.809 280.865Z" fill="#C2C750"/>
<path d="M139.496 259.368C140.026 263.92 140.274 268.422 140.426 272.927C140.515 275.531 140.448 278.14 140.424 281.38C140.443 283.898 140.488 285.782 140.501 287.985C140.459 289.675 140.509 291.051 140.43 292.42C140.245 295.654 139.998 298.886 139.457 302.075C133.868 302.109 128.597 302.185 123.195 302.28C123.064 302.298 122.818 302.398 122.818 302.398C122.747 299.786 122.578 297.172 122.622 294.562C122.815 283.058 123.069 271.556 123.308 259.729C128.601 259.377 133.888 259.348 139.496 259.368Z" fill="#EDB83A"/>
<path d="M220.812 366.61C224.985 366.653 229.158 366.695 233.652 366.753C233.987 372.722 234.002 378.675 233.986 384.952C229.732 385.416 225.509 385.556 221.031 385.843C215.522 385.862 210.267 385.758 205.014 385.59C203.93 385.555 202.853 385.281 201.878 384.633C201.932 383.618 201.881 383.088 201.83 382.558C201.83 377.337 201.83 372.116 201.83 366.7C208.195 366.7 213.901 366.7 220.064 366.668C220.521 366.636 220.812 366.61 220.812 366.61Z" fill="#F9EB7F"/>
<path d="M162.457 259.025C156.528 259.361 150.583 259.292 144.645 259.449C141.922 259.521 140.95 258.464 141.118 255.818C141.232 254.012 140.976 252.183 140.759 250.123C140.633 246.234 140.633 242.586 140.633 238.65C147.872 238.65 154.99 238.65 162.444 238.65C162.444 245.492 162.444 252.101 162.457 259.025Z" fill="#EDB83A"/>
<path d="M110.252 221.123C92.3248 221.105 74.3976 221.086 55.9443 221.054C55.1301 220.999 54.8418 220.959 54.5535 220.918C54.5535 220.918 54.5482 220.904 54.5556 220.724C54.588 220.428 54.6129 220.313 54.9529 220.204C98.3148 220.216 141.361 220.222 184.408 220.228C184.866 220.228 185.448 220.403 185.76 220.188C186.829 219.451 187.804 218.576 188.946 217.955C189.363 219.06 189.652 219.963 189.94 220.867C187.329 220.933 184.718 221.057 182.108 221.058C159.498 221.068 136.889 221.057 113.682 221.015C112.14 221.027 111.196 221.075 110.252 221.123Z" fill="#FDB738"/>
<path d="M54.6378 220.197C54.6129 220.313 54.588 220.428 54.5501 220.719C54.0685 221.302 53.5999 221.71 53.0277 222.343C52.3977 217.638 51.8713 212.707 51.3175 207.458C51.29 207.141 51.309 206.944 51.3845 206.66C51.5643 205.033 51.6688 203.689 51.7732 202.345C52.3118 200.363 52.8503 198.382 53.5906 196.496C54.0913 197.674 54.3903 198.756 54.6699 200.117C54.2963 204.831 53.9421 209.266 53.537 213.873C53.579 214.259 53.6718 214.474 53.7421 214.975C53.9728 216.362 54.2258 217.461 54.4229 218.765C54.4572 219.378 54.5475 219.788 54.6378 220.197Z" fill="#572B34"/>
<path d="M190.199 220.843C189.652 219.963 189.363 219.06 188.926 217.678C188.644 216.079 188.51 214.958 188.415 213.657C188.381 213.118 188.309 212.758 188.263 212.166C188.193 211.479 188.097 211.026 188.063 210.283C188.504 206.542 188.883 203.09 189.471 199.592C190.223 199.101 190.766 198.657 191.326 198.488C191.288 199.497 191.232 200.23 191.176 200.964C191.176 200.964 191.086 201.157 190.972 201.504C190.774 202.931 190.689 204.012 190.605 205.092C190.905 210.139 191.206 215.186 191.502 220.52C191.151 220.811 190.805 220.815 190.199 220.843Z" fill="#572B34"/>
<path d="M122.646 228.97C117.898 229.209 113.05 229.316 108.209 229.175C104.033 229.053 103.285 229.482 102.254 233.721C102.132 232.254 102.132 230.577 102.132 228.729C109.015 228.729 115.783 228.729 122.646 228.97Z" fill="#EDB83A"/>
<path d="M102.071 237.082C102.177 244.153 102.224 251.538 102.106 259.147C101.964 252.047 101.988 244.722 102.071 237.082Z" fill="#EDB83A"/>
<path d="M123.229 259.088C122.844 257.703 122.118 256.025 121.994 254.304C121.863 252.468 122.3 250.59 122.682 248.573C122.968 251.869 123.061 255.323 123.229 259.088Z" fill="#EDB83A"/>
<path d="M162.051 338.879C161.93 336.841 161.929 334.569 161.998 331.998C162.103 334.014 162.137 336.329 162.051 338.879Z" fill="#572B34"/>
<path d="M110.442 221.24C111.196 221.075 112.14 221.027 113.36 221.05C112.634 221.2 111.632 221.278 110.442 221.24Z" fill="#572B34"/>
<path d="M220.633 391.251C220.719 391.303 220.714 391.059 220.713 391.019C220.656 391.052 220.602 391.125 220.633 391.251Z" fill="#F9EB7F"/>
<path d="M54.4409 227.699C54.1842 227.375 53.9514 226.817 53.7294 226.028C53.9817 226.353 54.2232 226.909 54.4409 227.699Z" fill="#572B34"/>
<path d="M161.725 315.513C161.796 315.291 161.908 315.264 162.191 315.214C162.334 315.513 162.305 315.835 162.185 316.29C161.984 316.185 161.875 315.946 161.725 315.513Z" fill="#572B34"/>
<path d="M54.626 221.062C54.8418 220.958 55.1301 220.999 55.6223 221.113C55.4503 221.194 55.0744 221.2 54.626 221.062Z" fill="#572B34"/>
<path d="M53.5965 225.128C53.4121 224.939 53.2648 224.532 53.1502 223.905C53.3331 224.093 53.4834 224.501 53.5965 225.128Z" fill="#572B34"/>
<path d="M55.1414 229.754C54.9349 229.609 54.7327 229.258 54.546 228.7C54.7562 228.845 54.951 229.197 55.1414 229.754Z" fill="#572B34"/>
<path d="M220.793 366.448C220.812 366.61 220.521 366.636 220.379 366.599C220.252 366.401 220.308 366.257 220.505 366.067C220.604 366.006 220.773 366.285 220.793 366.448Z" fill="#652B33"/>
<path d="M189.357 363.593C189.398 363.497 189.521 363.469 189.829 363.482C190.014 363.524 189.748 363.684 189.748 363.684C189.748 363.684 189.438 363.661 189.357 363.593Z" fill="#214758"/>
<path d="M220.602 252.546C220.733 252.668 220.753 252.789 220.699 253.078C220.453 253.153 220.348 253.011 220.289 252.685C220.269 252.551 220.491 252.545 220.602 252.546Z" fill="#652B33"/>
<path d="M220.509 254.67C220.637 254.72 220.677 254.841 220.652 255.142C220.376 255.174 220.321 254.98 220.509 254.67Z" fill="#652B33"/>
<path d="M365.734 140.381C365.97 140.508 366.045 140.812 366.101 140.959C369.03 143.714 369.316 146.206 367.735 150.106C366.708 152.639 368.327 156.57 369.571 159.535C370.053 160.686 372.766 160.902 374.356 161.753C371.451 161.963 368.652 161.963 365.481 161.963C365.481 171.973 365.481 181.526 365.481 191.206C358.424 191.206 351.752 191.206 344.678 191.206C344.678 181.328 344.678 171.684 344.678 161.825C338.691 161.825 333.106 161.825 327.513 161.5C327.474 154.009 327.443 146.843 327.423 139.388C327.32 137.282 327.207 135.465 327.094 133.647C327.163 129.069 327.231 124.491 327.41 119.374C327.766 118.081 328.01 117.327 328.255 116.573C331.453 116.546 334.65 116.519 338.4 116.617C340.653 116.671 342.354 116.6 344.056 116.528C344.171 116.507 344.286 116.486 344.574 116.426C347.843 117.493 350.926 118.645 354.045 119.691C356.456 120.499 358.872 121.524 361.359 121.81C363.883 122.099 364.706 123.16 364.662 125.504C364.592 129.255 364.583 133.011 364.691 136.76C364.724 137.932 365.216 139.09 365.734 140.381Z" fill="#FD5741"/>
<path d="M327.857 72.1514C328.003 79.3644 327.878 86.5011 327.629 93.8767C327.399 97.4468 327.292 100.778 326.955 104.434C326.521 104.844 326.35 104.972 326.213 105.145C319.949 105.144 313.686 105.142 307.051 105.005C306.68 104.87 306.418 104.752 306.418 104.752C306.336 94.984 306.161 85.215 306.223 75.4475C306.243 72.2564 308.852 72.3207 311.56 72.3795C311.931 72.3608 312.214 72.2389 312.214 72.2389C317.338 72.1842 322.461 72.1296 327.857 72.1514Z" fill="#FB7E34"/>
<path d="M326.756 133.68C327.207 135.464 327.32 137.282 327.112 139.405C318.094 139.746 309.397 139.782 300.472 139.783C299.526 139.525 298.809 139.302 298.093 138.816C298.064 138.031 298.033 137.508 298.039 136.717C298.056 135.731 298.036 135.013 298.048 133.972C298.001 123.989 297.923 114.328 297.844 104.667C297.91 91.5908 297.975 78.5145 298.132 65.1338C298.336 71.9076 298.482 78.9856 298.55 86.0644C298.592 90.5271 298.508 94.9908 298.496 99.4541C298.481 104.68 298.56 104.77 304.043 105.825C304.043 107.957 304.045 110.198 304.043 112.439C304.039 118.504 304.117 124.572 303.987 130.634C303.935 133.056 304.839 133.82 307.191 133.776C313.598 133.654 320.008 133.72 326.756 133.68Z" fill="#A84135"/>
<path d="M343.754 116.45C342.354 116.6 340.653 116.671 338.717 116.631C340.14 116.47 341.796 116.421 343.754 116.45Z" fill="#A84135"/>
<path d="M298.305 62.5402C298.114 61.6159 298.024 60.4876 297.988 59.0867C298.163 59.9881 298.284 61.1622 298.305 62.5402Z" fill="#A84135"/>
<path d="M328.037 116.546C328.01 117.327 327.766 118.081 327.431 119.062C327.501 118.365 327.66 117.442 328.037 116.546Z" fill="#A84135"/>
<path d="M326.344 105.194C326.35 104.973 326.521 104.844 326.83 104.733C326.781 104.885 326.628 105.064 326.344 105.194Z" fill="#F9653E"/>
<path d="M284.717 23.6351C284.604 23.6379 284.402 23.4694 284.148 23.1047C284.274 23.0936 284.451 23.2787 284.717 23.6351Z" fill="#1E2432"/>
<path d="M288.186 28.3737C288.082 28.3735 287.901 28.2205 287.694 27.8865C287.842 27.8537 287.99 28.0254 288.186 28.3737Z" fill="#1E2432"/>
<path d="M286.799 26.33C286.695 26.3291 286.512 26.1699 286.293 25.8276C286.411 25.8203 286.566 25.9961 286.799 26.33Z" fill="#1E2432"/>
<path d="M306.425 104.857C306.418 104.752 306.68 104.869 306.733 104.918C306.786 104.966 306.608 105.078 306.608 105.078C306.608 105.078 306.433 104.962 306.425 104.857Z" fill="#F9653E"/>
<path d="M312.135 72.1783C312.214 72.2389 311.931 72.3609 311.855 72.3736C311.818 72.242 311.91 72.1524 312.135 72.1783Z" fill="#F9653E"/>
<path d="M327.43 280.682C327.431 280.887 327.119 280.82 326.965 280.777C326.91 280.565 327.027 280.41 327.268 280.171C327.392 280.207 327.411 280.343 327.43 280.682Z" fill="#348897"/>
<path d="M206.639 105.779C207.027 106.421 207.938 107.307 207.958 108.214C208.09 114.167 208.029 120.124 208.084 126.398C202.757 126.902 197.378 127.089 191.678 127.26C195.921 126.397 200.506 125.637 205.035 124.624C205.858 124.439 207.047 123.223 207.053 122.475C207.097 116.996 206.883 111.514 206.639 105.779Z" fill="#FD9835"/>
<path d="M191.524 105.535C191.888 105.4 192.396 105.39 193.152 105.438C192.822 105.551 192.245 105.605 191.524 105.535Z" fill="#FD9835"/>
<path d="M51.6209 202.58C51.6688 203.689 51.5643 205.033 51.2938 206.62C51.2413 205.513 51.3549 204.164 51.6209 202.58Z" fill="#FB8635"/>
<path d="M75.9401 166.825C75.9384 166.938 75.7612 167.12 75.3874 167.336C75.382 167.211 75.5733 167.052 75.9401 166.825Z" fill="#FB8635"/>
<path d="M259.84 119.266C259.84 114.729 259.84 110.193 259.84 105.319C264.932 105.319 269.711 105.254 274.487 105.353C276.18 105.388 277.117 104.952 277.129 102.884C277.49 98.9175 277.969 95.1996 277.94 91.4857C277.916 88.3852 278.694 86.2216 281.315 84.1887C283.571 82.4385 284.933 79.5504 286.741 77.2045C289.533 73.5814 292.499 73.0052 295.691 75.718C296.558 76.4548 297.162 77.978 297.185 79.1539C297.323 86.2475 297.241 93.3452 297.273 100.441C297.278 101.688 297.469 102.933 297.709 104.423C297.922 114.328 298.001 123.989 297.81 133.92C296.66 133.495 295.636 132.922 294.923 132.084C292.343 129.053 288.509 129.116 286.182 132.368C284.984 134.042 284.062 135.951 282.68 137.442C281.509 138.706 279.855 139.523 277.783 140.983C277.391 135.706 277.082 131.558 276.774 127.41C274.612 127.342 272.451 127.273 269.72 127.051C266.126 126.83 263.103 126.763 260.079 126.695C259.955 124.802 259.83 122.909 259.833 120.596C259.92 119.873 259.88 119.569 259.84 119.266Z" fill="#FD9835"/>
<path d="M246.241 23.5561C246.841 26.0157 247.666 28.4433 247.689 30.8786C247.818 44.0491 247.749 57.2215 247.503 70.8576C243.089 71.4345 238.921 71.5472 234.732 71.3408C234.681 55.4391 234.65 39.8564 234.648 24.0939C234.691 23.7936 234.706 23.6731 234.721 23.5526C237.756 23.628 240.79 23.7034 244.316 23.674C245.137 23.5554 245.469 23.5417 245.8 23.5281C245.8 23.5281 246.096 23.5277 246.241 23.5561Z" fill="#2C2834"/>
<path d="M258.69 28.2745C258.479 28.4327 258.279 28.3732 258.028 28.0859C258.192 28.011 258.433 28.0772 258.69 28.2745Z" fill="#FDA537"/>
<path d="M245.705 23.3231C245.469 23.5417 245.137 23.5554 244.557 23.5695C244.319 23.4229 244.329 23.2758 244.36 22.9084C244.791 22.8315 245.2 22.9749 245.705 23.3231Z" fill="#1B212D"/>
<path d="M259.317 28.7923C259.415 28.8903 259.102 28.9077 259.102 28.9077C259.102 28.9077 258.854 28.716 258.795 28.5708C258.915 28.4824 259.076 28.5719 259.317 28.7923Z" fill="#FDA537"/>
<path d="M404.487 178.061C403.805 177.571 403.12 176.832 402.36 175.886C403.018 176.39 403.751 177.1 404.487 178.061Z" fill="#F2474E"/>
<path d="M378.135 162.259C377.341 162.298 376.335 162.205 375.119 161.972C375.913 161.93 376.919 162.029 378.135 162.259Z" fill="#FD5741"/>
<path d="M401.608 174.806C401.208 174.705 400.775 174.378 400.258 173.86C400.641 173.973 401.108 174.276 401.608 174.806Z" fill="#F2474E"/>
<path d="M397.563 171.246C397.176 171.158 396.725 170.859 396.18 170.375C396.557 170.473 397.029 170.754 397.563 171.246Z" fill="#F2474E"/>
<path d="M396.085 170.087C395.823 170.089 395.441 169.913 394.949 169.555C395.215 169.552 395.59 169.731 396.085 170.087Z" fill="#F2474E"/>
<path d="M399.47 172.882C399.214 172.864 398.872 172.66 398.448 172.271C398.706 172.289 399.045 172.493 399.47 172.882Z" fill="#F2474E"/>
<path d="M398.244 171.94C398.147 171.963 397.945 171.856 397.67 171.588C397.802 171.521 397.983 171.649 398.244 171.94Z" fill="#F2474E"/>
<path d="M400.195 173.544C400.065 173.581 399.838 173.45 399.54 173.131C399.678 173.088 399.888 173.232 400.195 173.544Z" fill="#F2474E"/>
<path d="M402.293 175.56C402.169 175.586 401.946 175.446 401.656 175.115C401.79 175.08 401.992 175.237 402.293 175.56Z" fill="#F2474E"/>
<path d="M140.393 317.601C140.285 317.275 140.231 316.7 140.292 315.978C140.421 316.338 140.434 316.845 140.393 317.601Z" fill="#1B212D"/>
<path d="M139.97 322.706C139.876 322.544 139.982 322.385 140.205 322.135C140.253 322.253 140.202 322.475 139.97 322.706Z" fill="#1A222E"/>
<path d="M247.793 91.0947C247.778 114.608 247.792 138.121 247.691 161.634C247.683 163.47 246.87 165.304 246.26 167.392C242.236 167.12 238.382 166.597 233.931 166.036C230.474 166.368 227.614 166.738 224.755 167.107C224.755 167.107 224.552 167.084 224.184 167.11C222.9 167.254 221.984 167.372 221.068 167.49C221.042 167.119 221.016 166.749 221.233 166.013C224.18 165.264 226.899 164.485 229.582 164.595C233.044 164.736 234.378 163.228 234.528 160.087C234.583 158.947 234.636 157.806 234.636 156.665C234.638 134.968 234.633 113.27 234.917 91.5313C239.401 91.3583 243.597 91.2265 247.793 91.0947Z" fill="#2C2834"/>
<path d="M225.08 167.154C227.614 166.738 230.474 166.368 233.631 166.057C233.946 168.134 233.963 170.154 233.946 172.478C233.45 170.849 233.584 168.067 232.366 167.212C231.045 166.284 228.464 167.154 226.432 167.231C226.091 167.244 225.748 167.212 225.08 167.154Z" fill="#D26A2C"/>
<path d="M233.948 186.265C233.842 185.741 233.772 184.944 233.817 183.968C233.949 184.524 233.967 185.258 233.948 186.265Z" fill="#D26A2C"/>
<path d="M233.967 189.144C233.651 189.545 233.32 189.746 232.795 189.921C232.91 189.503 233.219 189.11 233.699 188.636C233.898 188.685 233.925 188.815 233.967 189.144Z" fill="#D26A2C"/>
<path d="M348.808 199.511C369.693 199.517 390.577 199.524 411.785 199.526C412.571 202.792 413.033 206.063 413.455 209.635C401.498 210.169 389.581 210.4 377.342 210.649C375.699 210.432 374.375 209.972 373.06 209.997C365.643 210.141 358.228 210.401 350.506 210.623C348.636 210.619 347.073 210.606 345.51 210.606C324.518 210.607 303.526 210.601 282.534 210.629C280.616 210.631 278.812 210.655 278.137 208.054C277.697 205.872 277.215 203.897 277.218 201.923C277.22 201.141 278.303 200.361 279.138 199.524C280.575 199.493 281.767 199.519 283.469 199.551C284.266 199.531 284.553 199.505 284.84 199.479C305.735 199.513 326.629 199.546 348.006 199.57C348.488 199.56 348.808 199.511 348.808 199.511Z" fill="#9D2837"/>
<path d="M194.273 191.241C196.377 184.809 200.745 179.873 206.25 175.583C204.953 177.997 203.626 180.611 201.857 182.881C199.59 185.792 196.968 188.426 194.273 191.241Z" fill="#D26A2C"/>
<path d="M192.236 196.699C192.577 195.089 193.125 193.34 193.865 191.44C193.519 193.046 192.98 194.803 192.236 196.699Z" fill="#D26A2C"/>
<path d="M191.326 198.488C191.461 197.85 191.613 197.486 191.898 196.977C191.864 198.074 191.696 199.317 191.353 200.762C191.232 200.23 191.288 199.497 191.326 198.488Z" fill="#D26A2C"/>
<path d="M209.513 173.475C209.824 173.067 210.354 172.658 211.088 172.229C210.772 172.631 210.252 173.053 209.513 173.475Z" fill="#D26A2C"/>
<path d="M190.757 204.869C190.689 204.012 190.774 202.931 190.988 201.609C191.048 202.46 190.979 203.553 190.757 204.869Z" fill="#D26A2C"/>
<path d="M221.029 167.607C221.984 167.372 222.901 167.254 224.095 167.159C223.397 167.456 222.422 167.729 221.183 167.982C220.92 167.961 220.989 167.724 221.029 167.607Z" fill="#D26A2C"/>
<path d="M206.696 175.488C206.767 175.247 207.037 174.976 207.502 174.665C207.429 174.902 207.162 175.18 206.696 175.488Z" fill="#D26A2C"/>
<path d="M216.13 169.89C216.27 169.671 216.627 169.449 217.201 169.218C217.061 169.435 216.705 169.662 216.13 169.89Z" fill="#D26A2C"/>
<path d="M217.6 169.225C217.747 169.021 218.1 168.818 218.664 168.633C218.52 168.842 218.163 169.035 217.6 169.225Z" fill="#D26A2C"/>
<path d="M219.525 168.514C219.694 168.312 220.086 168.121 220.703 167.945C220.534 168.148 220.141 168.336 219.525 168.514Z" fill="#D26A2C"/>
<path d="M214.225 170.682C214.357 170.474 214.686 170.259 215.218 170.057C215.088 170.271 214.756 170.474 214.225 170.682Z" fill="#D26A2C"/>
<path d="M212.918 171.37C213.029 171.152 213.334 170.922 213.836 170.688C213.726 170.909 213.419 171.133 212.918 171.37Z" fill="#D26A2C"/>
<path d="M211.926 171.893C211.926 171.766 212.097 171.603 212.45 171.432C212.454 171.568 212.275 171.712 211.926 171.893Z" fill="#D26A2C"/>
<path d="M208.643 174.038C208.535 173.844 208.671 173.67 209.064 173.541C209.139 173.72 208.994 173.877 208.643 174.038Z" fill="#D26A2C"/>
<path d="M207.845 174.61C207.83 174.479 207.983 174.306 208.313 174.11C208.331 174.247 208.172 174.407 207.845 174.61Z" fill="#D26A2C"/>
<path d="M141.487 287.736C141.167 287.777 140.858 287.68 140.696 287.673C140.488 285.782 140.443 283.898 140.426 281.699C150.037 281.384 159.619 281.382 169.498 281.418C169.749 291.608 169.704 301.76 169.543 312.173C163.122 312.357 163.75 313.132 163.735 306.776C163.722 301.414 163.657 296.051 163.774 290.692C163.825 288.348 163.045 287.453 160.626 287.518C154.356 287.688 148.08 287.65 141.487 287.736Z" fill="#7C7B40"/>
<path d="M169.445 313.583C169.225 313.611 169.172 313.431 169.313 313.137C169.412 313.172 169.446 313.288 169.445 313.583Z" fill="#1A222E"/>
<path d="M123.195 302.28C123.314 303.188 123.301 304.115 123.197 305.306C123.014 304.665 122.921 303.759 122.823 302.625C122.818 302.398 123.064 302.298 123.195 302.28Z" fill="#7C7B40"/>
<path d="M188 210.572C188.097 211.026 188.193 211.48 188.204 212.35C188.205 213.123 188.291 213.48 188.377 213.838C188.511 214.959 188.644 216.08 188.796 217.477C187.804 218.576 186.829 219.451 185.76 220.188C185.448 220.403 184.866 220.228 184.408 220.228C141.362 220.222 98.3148 220.216 54.9529 220.204C54.5475 219.788 54.4572 219.378 54.4319 218.468C54.2528 216.875 54.0087 215.781 53.7646 214.688C53.6718 214.474 53.579 214.26 53.6125 213.581C54.2871 209.866 56.8727 210.645 58.8973 210.642C101.931 210.593 144.966 210.587 188 210.572Z" fill="#FFBB2A"/>
<path d="M188.063 210.283C144.966 210.587 101.931 210.593 58.8973 210.642C56.8727 210.645 54.2871 209.866 53.6633 213.408C53.9421 209.266 54.2964 204.832 54.67 200.117C54.6893 199.837 54.6512 199.832 54.9787 199.795C95.3946 199.741 135.483 199.734 175.571 199.694C179.917 199.689 184.263 199.496 188.608 199.391C188.719 199.428 188.83 199.464 189.102 199.57C188.883 203.091 188.504 206.543 188.063 210.283Z" fill="#FB8635"/>
<path d="M53.7422 214.975C54.0087 215.781 54.2529 216.875 54.4879 218.265C54.2258 217.462 53.9728 216.362 53.7422 214.975Z" fill="#FDB738"/>
<path d="M188.416 213.658C188.291 213.48 188.205 213.123 188.177 212.582C188.309 212.758 188.381 213.118 188.416 213.658Z" fill="#FB8635"/>
<path d="M234.629 91.5725C234.633 113.27 234.638 134.968 234.636 156.665C234.636 157.806 234.583 158.947 234.528 160.087C234.378 163.228 233.044 164.736 229.582 164.595C226.899 164.485 224.18 165.264 221.226 165.734C220.953 146.354 220.931 126.888 220.888 107.101C220.89 102.662 220.813 98.54 220.974 94.4276C221.072 91.9283 220.2 90.9015 217.637 90.9794C213.408 91.1079 209.17 90.9284 204.94 91.0363C202.593 91.0962 201.639 90.2247 201.699 87.8383C201.809 83.4938 201.807 79.1421 201.688 74.7979C201.622 72.4029 202.586 71.5418 204.928 71.603C209.044 71.7104 213.17 71.4934 217.281 71.6719C220.168 71.7972 221.007 70.6677 220.982 67.8732C220.869 54.9465 221.021 42.0173 220.873 29.0913C220.836 25.8383 221.656 24.1191 225.185 24.1347C227.683 24.1458 230.184 23.7464 233.131 23.6736C233.926 23.9692 234.273 24.1214 234.62 24.2737C234.65 39.8563 234.681 55.439 234.565 71.5804C234.489 78.617 234.559 85.0947 234.629 91.5725Z" fill="#652B33"/>
<path d="M188.36 199.26C184.263 199.496 179.917 199.689 175.571 199.693C135.483 199.734 95.3946 199.741 54.9961 199.794C55.6322 199.551 56.5781 199.029 57.5246 199.028C100.716 198.972 143.908 198.961 187.1 198.953C187.437 198.953 187.774 199.068 188.36 199.26Z" fill="#572B34"/>
<path d="M327.513 161.5C327.521 168.314 327.521 174.802 327.521 181.543C319.751 181.543 312.624 181.543 304.625 181.543C304.625 175.075 304.625 168.528 304.206 161.693C303.241 159.244 302.007 156.99 302.281 154.938C302.98 149.698 304.626 144.522 300.7 139.818C309.397 139.782 318.094 139.746 327.102 139.694C327.444 146.843 327.475 154.009 327.513 161.5Z" fill="#FB8635"/>
<path d="M300.472 139.783C304.626 144.522 302.98 149.698 302.281 154.938C302.007 156.99 303.241 159.244 303.948 161.524C296.907 161.681 289.707 161.76 282.506 161.744C278.416 161.735 276.756 160.007 276.747 155.831C276.727 146.571 276.76 137.31 276.772 127.73C277.082 131.558 277.391 135.706 277.783 140.983C279.855 139.523 281.509 138.706 282.68 137.442C284.062 135.951 284.984 134.042 286.182 132.368C288.509 129.116 292.343 129.053 294.923 132.085C295.636 132.923 296.66 133.496 297.779 134.242C298.036 135.013 298.056 135.731 297.904 136.876C297.852 137.894 297.971 138.486 298.091 139.078C298.809 139.302 299.526 139.525 300.472 139.783Z" fill="#FA8E36"/>
<path d="M298.093 138.816C297.971 138.486 297.852 137.894 297.867 137.143C298.033 137.508 298.064 138.031 298.093 138.816Z" fill="#FD9835"/>
<path d="M234.648 24.094C234.273 24.1216 233.926 23.9693 233.441 23.6817C233.619 23.5433 233.933 23.5402 234.484 23.5449C234.706 23.6732 234.692 23.7936 234.648 24.094Z" fill="#572B34"/>
<path d="M234.917 91.5313C234.559 85.0947 234.489 78.6169 234.586 71.8995C238.921 71.5471 243.089 71.4345 247.502 71.1814C252.785 71.0533 257.825 71.1452 262.861 71.0436C265.274 70.9949 266.457 71.6882 266.372 74.3356C266.228 78.797 266.234 83.2694 266.373 87.7312C266.455 90.3688 265.268 91.0839 262.855 91.0341C258.048 90.935 253.237 91.0261 248.11 91.0667C243.597 91.2265 239.401 91.3583 234.917 91.5313Z" fill="#572B34"/>
<path d="M260.2 126.907C263.103 126.763 266.126 126.83 269.401 126.996C266.541 127.102 263.431 127.111 260.2 126.907Z" fill="#FA8E36"/>
<path d="M284.724 199.391C284.553 199.505 284.266 199.531 283.765 199.518C283.904 199.42 284.256 199.362 284.724 199.391Z" fill="#2C2834"/>
<path d="M259.769 119.449C259.88 119.569 259.92 119.873 259.905 120.283C259.799 120.137 259.748 119.885 259.769 119.449Z" fill="#FA8E36"/>
<path d="M348.736 199.454C348.808 199.511 348.488 199.56 348.329 199.537C348.311 199.367 348.476 199.328 348.736 199.454Z" fill="#2C2834"/>
<path d="M230.644 208.224C232.255 207.372 233.891 206.173 235.286 206.407C236.194 206.56 237.33 208.818 237.285 210.094C237.248 211.137 235.794 212.611 234.65 213.035C232.231 213.931 230.595 211.951 230.644 208.224Z" fill="#FB8635"/>
</svg>
