<svg width="465" height="451" viewBox="0 0 465 451" fill="none" xmlns="http://www.w3.org/2000/svg">
<g clip-path="url(#clip0_1_51)">
<path fill-rule="evenodd" clip-rule="evenodd" d="M3.75283 40H451.341C451.341 40 451.535 40.6165 451.877 41.801L339.395 188.764L264.605 99.388L113.907 282.844L40.2326 188.764L14.6517 222.594C-9.81734 131.335 3.75283 40 3.75283 40ZM25.2883 255.535C29.8698 267.501 35.2358 279.27 41.5078 290.626C100.603 397.621 243.415 436 243.415 436C243.415 436 372.001 393.551 432.19 281.903C471.362 209.241 467.658 128.698 460.295 81.3081L339.395 236.98L264.605 141.724L113.907 334L40.2326 236.98L25.2883 255.535Z" fill="#8F1D41"/>
<path d="M451.341 40L451.818 39.8497L451.708 39.5H451.341V40ZM3.75283 40V39.5H3.32163L3.25826 39.9265L3.75283 40ZM451.877 41.801L452.274 42.1049L452.428 41.9046L452.358 41.6623L451.877 41.801ZM339.395 188.764L339.012 189.085L339.413 189.564L339.792 189.068L339.395 188.764ZM264.605 99.388L264.988 99.0671L264.601 98.6046L264.218 99.0706L264.605 99.388ZM113.907 282.844L113.513 283.152L113.898 283.643L114.293 283.161L113.907 282.844ZM40.2326 188.764L40.6262 188.456L40.2256 187.944L39.8337 188.462L40.2326 188.764ZM14.6517 222.594L14.1688 222.724L14.4336 223.712L15.0505 222.896L14.6517 222.594ZM25.2883 255.535L24.8989 255.222L24.7185 255.446L24.8213 255.714L25.2883 255.535ZM41.5078 290.626L41.9455 290.384L41.9455 290.384L41.5078 290.626ZM243.415 436L243.285 436.483L243.43 436.522L243.572 436.475L243.415 436ZM432.19 281.903L431.75 281.666L431.75 281.666L432.19 281.903ZM460.295 81.3081L460.789 81.2314L460.611 80.0859L459.9 81.0014L460.295 81.3081ZM339.395 236.98L339.002 237.289L339.397 237.792L339.79 237.287L339.395 236.98ZM264.605 141.724L264.998 141.415L264.604 140.914L264.211 141.416L264.605 141.724ZM113.907 334L113.509 334.302L113.901 334.819L114.301 334.308L113.907 334ZM40.2326 236.98L40.6308 236.678L40.2441 236.168L39.8432 236.666L40.2326 236.98ZM451.341 39.5H3.75283V40.5H451.341V39.5ZM452.358 41.6623C452.186 41.068 452.051 40.6158 451.959 40.3117C451.914 40.1596 451.878 40.0446 451.854 39.9673C451.842 39.9287 451.833 39.8996 451.827 39.8799C451.824 39.8701 451.822 39.8627 451.82 39.8576C451.82 39.8551 451.819 39.8532 451.819 39.8519C451.818 39.8512 451.818 39.8507 451.818 39.8504C451.818 39.8502 451.818 39.85 451.818 39.8499C451.818 39.8499 451.818 39.8498 451.818 39.8498C451.818 39.8498 451.818 39.8498 451.818 39.8498C451.818 39.8498 451.818 39.8497 451.341 40C450.864 40.1503 450.864 40.1502 450.864 40.1502C450.864 40.1502 450.864 40.1502 450.864 40.1502C450.864 40.1502 450.864 40.1503 450.864 40.1503C450.864 40.1503 450.864 40.1504 450.864 40.1505C450.864 40.1508 450.864 40.1512 450.865 40.1517C450.865 40.1528 450.865 40.1545 450.866 40.1568C450.868 40.1614 450.87 40.1683 450.873 40.1777C450.879 40.1964 450.887 40.2246 450.899 40.2623C450.922 40.3377 450.957 40.4508 451.002 40.601C451.093 40.9012 451.227 41.3495 451.397 41.9398L452.358 41.6623ZM451.48 41.4971L338.998 188.46L339.792 189.068L452.274 42.1049L451.48 41.4971ZM339.779 188.443L264.988 99.0671L264.221 99.7089L339.012 189.085L339.779 188.443ZM264.218 99.0706L113.521 282.527L114.293 283.161L264.991 99.7054L264.218 99.0706ZM114.301 282.536L40.6262 188.456L39.8389 189.072L113.513 283.152L114.301 282.536ZM39.8337 188.462L14.2529 222.293L15.0505 222.896L40.6314 189.066L39.8337 188.462ZM3.75283 40C3.25826 39.9265 3.25819 39.927 3.25807 39.9278C3.25796 39.9285 3.2578 39.9296 3.25758 39.9311C3.25715 39.934 3.25652 39.9383 3.25568 39.944C3.25401 39.9554 3.25153 39.9723 3.24828 39.9947C3.24177 40.0394 3.23215 40.1062 3.21961 40.1945C3.19453 40.3712 3.15777 40.6343 3.11091 40.9811C3.01719 41.6745 2.88306 42.7026 2.72114 44.0428C2.39729 46.7233 1.96222 50.6528 1.51679 55.6527C0.625937 65.6522 -0.3065 79.9343 -0.473604 97.07C-0.807779 131.338 1.91852 177.035 14.1688 222.724L15.1346 222.465C2.91584 176.894 0.192698 131.294 0.526348 97.0798C0.693156 79.9744 1.62395 65.719 2.51284 55.7414C2.95728 50.7527 3.39123 46.8336 3.71392 44.1628C3.87526 42.8273 4.00878 41.804 4.1019 41.115C4.14845 40.7705 4.18491 40.5096 4.20968 40.3351C4.22207 40.2478 4.23154 40.1822 4.23789 40.1384C4.24107 40.1166 4.24346 40.1002 4.24506 40.0894C4.24585 40.084 4.24645 40.0799 4.24684 40.0773C4.24703 40.0759 4.24717 40.075 4.24727 40.0743C4.24736 40.0737 4.2474 40.0735 3.75283 40ZM24.8213 255.714C29.4103 267.699 34.7858 279.489 41.0701 290.867L41.9455 290.384C35.6858 279.05 30.3293 267.303 25.7552 255.356L24.8213 255.714ZM41.0701 290.867C70.6846 344.486 121.258 380.888 164.387 403.877C185.956 415.375 205.676 423.525 220.004 428.801C227.169 431.439 232.986 433.358 237.014 434.619C239.027 435.249 240.594 435.715 241.657 436.023C242.189 436.177 242.595 436.292 242.869 436.368C243.006 436.406 243.109 436.435 243.179 436.454C243.214 436.464 243.24 436.471 243.258 436.476C243.267 436.478 243.274 436.48 243.278 436.481C243.28 436.482 243.282 436.482 243.283 436.482C243.284 436.483 243.285 436.483 243.415 436C243.545 435.517 243.544 435.517 243.543 435.517C243.542 435.516 243.541 435.516 243.539 435.516C243.535 435.514 243.528 435.513 243.52 435.51C243.503 435.506 243.477 435.499 243.443 435.49C243.375 435.471 243.273 435.443 243.138 435.405C242.867 435.33 242.464 435.216 241.936 435.063C240.879 434.756 239.319 434.293 237.312 433.665C233.299 432.409 227.497 430.494 220.35 427.862C206.054 422.599 186.378 414.466 164.857 402.995C121.806 380.046 71.4259 343.76 41.9455 290.384L41.0701 290.867ZM243.415 436C243.572 436.475 243.572 436.475 243.573 436.474C243.574 436.474 243.576 436.473 243.578 436.473C243.582 436.471 243.588 436.469 243.596 436.467C243.612 436.461 243.636 436.453 243.667 436.443C243.73 436.422 243.824 436.39 243.947 436.348C244.194 436.264 244.56 436.137 245.04 435.967C246 435.628 247.415 435.116 249.235 434.425C252.876 433.044 258.142 430.946 264.648 428.08C277.661 422.349 295.636 413.543 315.495 401.244C355.207 376.65 402.479 338.069 432.63 282.14L431.75 281.666C401.712 337.385 354.597 375.852 314.968 400.394C295.157 412.664 277.224 421.449 264.245 427.165C257.756 430.023 252.506 432.114 248.88 433.49C247.067 434.178 245.66 434.688 244.707 435.025C244.23 435.193 243.867 435.318 243.624 435.402C243.502 435.443 243.41 435.474 243.349 435.495C243.319 435.505 243.296 435.513 243.28 435.518C243.273 435.52 243.267 435.522 243.263 435.523C243.262 435.524 243.26 435.525 243.259 435.525C243.258 435.525 243.258 435.525 243.415 436ZM432.63 282.14C471.878 209.337 468.159 128.663 460.789 81.2314L459.801 81.3849C467.157 128.732 470.845 209.145 431.75 281.666L432.63 282.14ZM339.79 237.287L460.69 81.6148L459.9 81.0014L339 236.673L339.79 237.287ZM264.211 142.033L339.002 237.289L339.789 236.671L264.998 141.415L264.211 142.033ZM114.301 334.308L264.998 142.032L264.211 141.416L113.513 333.692L114.301 334.308ZM39.8344 237.282L113.509 334.302L114.305 333.698L40.6308 236.678L39.8344 237.282ZM25.6777 255.849L40.622 237.294L39.8432 236.666L24.8989 255.222L25.6777 255.849Z" fill="#8F1D41"/>
</g>
<defs>
<clipPath id="clip0_1_51">
<rect width="465" height="451" fill="white"/>
</clipPath>
</defs>
</svg>
